<mxfile host="app.diagrams.net" modified="2021-02-01T08:54:48.152Z" agent="5.0 (Windows NT 10.0; Win64; x64) AppleWebKit/537.36 (KHTML, like Gecko) Chrome/88.0.4324.104 Safari/537.36" etag="S196X_7pv71O2FOdMQC6" version="14.2.9" type="github">
  <diagram id="pR1rOM2LMojWc6BjxqE0" name="Page-1">
    <mxGraphModel dx="966" dy="573" grid="1" gridSize="10" guides="1" tooltips="1" connect="1" arrows="1" fold="1" page="1" pageScale="1" pageWidth="827" pageHeight="1169" math="0" shadow="0">
      <root>
        <mxCell id="0" />
        <mxCell id="1" parent="0" />
        <mxCell id="0qjY-80UsohrKf_hPCvL-1" value="&lt;font style=&quot;font-size:11px;font-family:Helvetica;color:#000000;direction:ltr;letter-spacing:0px;line-height:120%;opacity:1&quot;&gt;开始&lt;/font&gt;" style="verticalAlign=middle;align=center;vsdxID=1;fillColor=#ffffff;gradientColor=none;shape=stencil(nZDNDsIgEISfZu8UTp5rfQGfgMgqGxEair9PL+3EBI2n3nZmvskmQ6afvB2ZtJpKTme+iyuezJa0lug5S6kXmYFMf0yZTzldo4MebSW1Whx26HQzrZXNh728GN4GHkqXdJufPRApRM9W7QAGiQ3YqdXoR/+FV6NfYD2WMTCThIAt2/x3vGpheDO8AQ==);strokeColor=#000000;spacingTop=-3;spacingBottom=-3;spacingLeft=-3;spacingRight=-3;labelBackgroundColor=none;rounded=1;html=1;whiteSpace=wrap;" vertex="1" parent="1">
          <mxGeometry x="1534" y="1269" width="120" height="60" as="geometry" />
        </mxCell>
        <mxCell id="0qjY-80UsohrKf_hPCvL-2" value="&lt;font style=&quot;font-size:11px;font-family:Helvetica;color:#000000;direction:ltr;letter-spacing:0px;line-height:120%;opacity:1&quot;&gt;launch a global instance of jupyterlab app&lt;/font&gt;" style="verticalAlign=middle;align=center;vsdxID=3;fillColor=#ffffff;gradientColor=none;shape=stencil(nZBRDoQgDERP03+WHsHFe5iISyOCQdT19kIaIxq//Jtp3zTpAFaTaUYNUkwx+F6v1EYD+AUpyRkdKCYFqACrzgf9C352LfuxyWRWg1/yhT/nRE5IsZWuZtCSK8CPeI0e/hF+jV7AJM4PO7KWCyr390bSiNtEtQM=);strokeColor=#000000;spacingTop=-3;spacingBottom=-3;spacingLeft=-3;spacingRight=-3;labelBackgroundColor=none;rounded=0;html=1;whiteSpace=wrap;" vertex="1" parent="1">
          <mxGeometry x="1534" y="1369" width="120" height="60" as="geometry" />
        </mxCell>
        <mxCell id="0qjY-80UsohrKf_hPCvL-3" value="&lt;font style=&quot;font-size:11px;font-family:Helvetica;color:#000000;direction:ltr;letter-spacing:0px;line-height:120%;opacity:1&quot;&gt;initialize(do the basicsteps&lt;br/&gt;&lt;/font&gt;&lt;font style=&quot;font-size:11px;font-family:Helvetica;color:#000000;direction:ltr;letter-spacing:0px;line-height:120%;opacity:1&quot;&gt; to config app)&lt;/font&gt;" style="verticalAlign=middle;align=center;vsdxID=4;fillColor=#ffffff;gradientColor=none;shape=stencil(nZBRDoQgDERP03+WHsHFe5iISyOCQdT19kIaIxq//Jtp3zTpAFaTaUYNUkwx+F6v1EYD+AUpyRkdKCYFqACrzgf9C352LfuxyWRWg1/yhT/nRE5IsZWuZtCSK8CPeI0e/hF+jV7AJM4PO7KWCyr390bSiNtEtQM=);strokeColor=#000000;spacingTop=-3;spacingBottom=-3;spacingLeft=-3;spacingRight=-3;labelBackgroundColor=none;rounded=0;html=1;whiteSpace=wrap;" vertex="1" parent="1">
          <mxGeometry x="1534" y="1459" width="120" height="60" as="geometry" />
        </mxCell>
        <mxCell id="0qjY-80UsohrKf_hPCvL-4" value="&lt;font style=&quot;font-size:11px;font-family:Helvetica;color:#000000;direction:ltr;letter-spacing:0px;line-height:120%;opacity:1&quot;&gt;start the notebook server app&lt;/font&gt;" style="verticalAlign=middle;align=center;vsdxID=6;fillColor=#ffffff;gradientColor=none;shape=stencil(nZBRDoQgDERP03+WHsHFe5iISyOCQdT19kIaIxq//Jtp3zTpAFaTaUYNUkwx+F6v1EYD+AUpyRkdKCYFqACrzgf9C352LfuxyWRWg1/yhT/nRE5IsZWuZtCSK8CPeI0e/hF+jV7AJM4PO7KWCyr390bSiNtEtQM=);strokeColor=#000000;spacingTop=-3;spacingBottom=-3;spacingLeft=-3;spacingRight=-3;labelBackgroundColor=none;rounded=0;html=1;whiteSpace=wrap;" vertex="1" parent="1">
          <mxGeometry x="1534" y="1549" width="120" height="60" as="geometry" />
        </mxCell>
        <mxCell id="0qjY-80UsohrKf_hPCvL-5" value="&lt;font style=&quot;font-size:11px;font-family:Helvetica;color:#000000;direction:ltr;letter-spacing:0px;line-height:120%;opacity:1&quot;&gt;进行asyncio兼容相关的初始化&lt;br/&gt;&lt;/font&gt;" style="verticalAlign=middle;align=center;vsdxID=8;fillColor=#ffffff;gradientColor=none;shape=stencil(nZBRDoQgDERP03+WHsHFe5iISyOCQdT19kIaIxq//Jtp3zTpAFaTaUYNUkwx+F6v1EYD+AUpyRkdKCYFqACrzgf9C352LfuxyWRWg1/yhT/nRE5IsZWuZtCSK8CPeI0e/hF+jV7AJM4PO7KWCyr390bSiNtEtQM=);strokeColor=#000000;spacingTop=-3;spacingBottom=-3;spacingLeft=-3;spacingRight=-3;labelBackgroundColor=none;rounded=0;html=1;whiteSpace=wrap;" vertex="1" parent="1">
          <mxGeometry x="1944" y="1239" width="120" height="50" as="geometry" />
        </mxCell>
        <mxCell id="0qjY-80UsohrKf_hPCvL-6" value="&lt;font style=&quot;font-size:11px;font-family:Helvetica;color:#000000;direction:ltr;letter-spacing:0px;line-height:120%;opacity:1&quot;&gt;parse commandline&lt;/font&gt;" style="verticalAlign=middle;align=center;vsdxID=10;fillColor=#FF9999;gradientColor=none;shape=stencil(nZBRDoQgDERP03+WHsHFe5iISyOCQdT19kIaIxq//Jtp3zTpAFaTaUYNUkwx+F6v1EYD+AUpyRkdKCYFqACrzgf9C352LfuxyWRWg1/yhT/nRE5IsZWuZtCSK8CPeI0e/hF+jV7AJM4PO7KWCyr390bSiNtEtQM=);strokeColor=#000000;spacingTop=-3;spacingBottom=-3;spacingLeft=-3;spacingRight=-3;labelBackgroundColor=none;rounded=0;html=1;whiteSpace=wrap;" vertex="1" parent="1">
          <mxGeometry x="1944" y="1329" width="120" height="60" as="geometry" />
        </mxCell>
        <mxCell id="0qjY-80UsohrKf_hPCvL-7" value="&lt;font style=&quot;font-size:11px;font-family:Helvetica;color:#000000;direction:ltr;letter-spacing:0px;line-height:120%;opacity:1&quot;&gt;migrate Ipython&amp;prime;s config，load config file and update config&lt;/font&gt;" style="verticalAlign=middle;align=center;vsdxID=12;fillColor=#FF9999;gradientColor=none;shape=stencil(nZBRDoQgDERP03+WHsHFe5iISyOCQdT19kIaIxq//Jtp3zTpAFaTaUYNUkwx+F6v1EYD+AUpyRkdKCYFqACrzgf9C352LfuxyWRWg1/yhT/nRE5IsZWuZtCSK8CPeI0e/hF+jV7AJM4PO7KWCyr390bSiNtEtQM=);strokeColor=#000000;spacingTop=-3;spacingBottom=-3;spacingLeft=-3;spacingRight=-3;labelBackgroundColor=none;rounded=0;html=1;whiteSpace=wrap;" vertex="1" parent="1">
          <mxGeometry x="1899" y="1419" width="210" height="60" as="geometry" />
        </mxCell>
        <mxCell id="0qjY-80UsohrKf_hPCvL-8" value="&lt;font style=&quot;font-size:11px;font-family:Helvetica;color:#000000;direction:ltr;letter-spacing:0px;line-height:120%;opacity:1&quot;&gt;init logging（tornado）&lt;/font&gt;" style="verticalAlign=middle;align=center;vsdxID=14;fillColor=#ffffff;gradientColor=none;shape=stencil(nZBRDoQgDERP03+WHsHFe5iISyOCQdT19kIaIxq//Jtp3zTpAFaTaUYNUkwx+F6v1EYD+AUpyRkdKCYFqACrzgf9C352LfuxyWRWg1/yhT/nRE5IsZWuZtCSK8CPeI0e/hF+jV7AJM4PO7KWCyr390bSiNtEtQM=);strokeColor=#000000;spacingTop=-3;spacingBottom=-3;spacingLeft=-3;spacingRight=-3;labelBackgroundColor=none;rounded=0;html=1;whiteSpace=wrap;" vertex="1" parent="1">
          <mxGeometry x="1944" y="1509" width="120" height="50" as="geometry" />
        </mxCell>
        <mxCell id="0qjY-80UsohrKf_hPCvL-9" value="&lt;font style=&quot;font-size:11px;font-family:Helvetica;color:#000000;direction:ltr;letter-spacing:0px;line-height:120%;opacity:1&quot;&gt;init system resource&lt;br/&gt;&lt;/font&gt;&lt;font style=&quot;font-size:11px;font-family:Helvetica;color:#000000;direction:ltr;letter-spacing:0px;line-height:120%;opacity:1&quot;&gt;(open file limite)&lt;/font&gt;" style="verticalAlign=middle;align=center;vsdxID=18;fillColor=#ffffff;gradientColor=none;shape=stencil(nZBRDoQgDERP03+WHsHFe5iISyOCQdT19kIaIxq//Jtp3zTpAFaTaUYNUkwx+F6v1EYD+AUpyRkdKCYFqACrzgf9C352LfuxyWRWg1/yhT/nRE5IsZWuZtCSK8CPeI0e/hF+jV7AJM4PO7KWCyr390bSiNtEtQM=);strokeColor=#000000;spacingTop=-3;spacingBottom=-3;spacingLeft=-3;spacingRight=-3;labelBackgroundColor=none;rounded=0;html=1;whiteSpace=wrap;" vertex="1" parent="1">
          <mxGeometry x="1944" y="1729" width="120" height="60" as="geometry" />
        </mxCell>
        <mxCell id="0qjY-80UsohrKf_hPCvL-10" value="&lt;font style=&quot;font-size:11px;font-family:Helvetica;color:#000000;direction:ltr;letter-spacing:0px;line-height:120%;opacity:1&quot;&gt;init configurables&lt;br/&gt;&lt;/font&gt;&lt;font style=&quot;font-size:11px;font-family:Helvetica;color:#000000;direction:ltr;letter-spacing:0px;line-height:120%;opacity:1&quot;&gt;(initialize  managers，e.g. &lt;/font&gt;&lt;font style=&quot;font-size:11px;font-family:Helvetica;color:#99ff99;direction:ltr;letter-spacing:0px;line-height:120%;opacity:1&quot;&gt; gateway manager，kernel manager，contents manager，session manager，config manager...&lt;/font&gt;&lt;font style=&quot;font-size:11px;font-family:Helvetica;color:#000000;direction:ltr;letter-spacing:0px;line-height:120%;opacity:1&quot;&gt;)&lt;/font&gt;" style="verticalAlign=middle;align=center;vsdxID=19;fillColor=#ffffff;gradientColor=none;shape=stencil(nZBRDoQgDERP03+WHsHFe5iISyOCQdT19kIaIxq//Jtp3zTpAFaTaUYNUkwx+F6v1EYD+AUpyRkdKCYFqACrzgf9C352LfuxyWRWg1/yhT/nRE5IsZWuZtCSK8CPeI0e/hF+jV7AJM4PO7KWCyr390bSiNtEtQM=);strokeColor=#000000;spacingTop=-3;spacingBottom=-3;spacingLeft=-3;spacingRight=-3;labelBackgroundColor=none;rounded=0;html=1;whiteSpace=wrap;" vertex="1" parent="1">
          <mxGeometry x="1869" y="1819" width="270" height="70" as="geometry" />
        </mxCell>
        <mxCell id="0qjY-80UsohrKf_hPCvL-11" value="&lt;font style=&quot;font-size:11px;font-family:Helvetica;color:#000000;direction:ltr;letter-spacing:0px;line-height:120%;opacity:1&quot;&gt;init server extension config&lt;/font&gt;" style="verticalAlign=middle;align=center;vsdxID=21;fillColor=#ffffff;gradientColor=none;shape=stencil(nZBRDoQgDERP03+WHsHFe5iISyOCQdT19kIaIxq//Jtp3zTpAFaTaUYNUkwx+F6v1EYD+AUpyRkdKCYFqACrzgf9C352LfuxyWRWg1/yhT/nRE5IsZWuZtCSK8CPeI0e/hF+jV7AJM4PO7KWCyr390bSiNtEtQM=);strokeColor=#000000;spacingTop=-3;spacingBottom=-3;spacingLeft=-3;spacingRight=-3;labelBackgroundColor=none;rounded=0;html=1;whiteSpace=wrap;" vertex="1" parent="1">
          <mxGeometry x="1914" y="1929" width="180" height="40" as="geometry" />
        </mxCell>
        <mxCell id="0qjY-80UsohrKf_hPCvL-12" value="&lt;font style=&quot;font-size:11px;font-family:Helvetica;color:#000000;direction:ltr;letter-spacing:0px;line-height:120%;opacity:1&quot;&gt;init components&lt;br/&gt;&lt;/font&gt;&lt;font style=&quot;font-size:11px;font-family:Helvetica;color:#000000;direction:ltr;letter-spacing:0px;line-height:120%;opacity:1&quot;&gt;（check if conponents are clean）&lt;/font&gt;" style="verticalAlign=middle;align=center;vsdxID=23;fillColor=#ffffff;gradientColor=none;shape=stencil(nZBRDoQgDERP03+WHsHFe5iISyOCQdT19kIaIxq//Jtp3zTpAFaTaUYNUkwx+F6v1EYD+AUpyRkdKCYFqACrzgf9C352LfuxyWRWg1/yhT/nRE5IsZWuZtCSK8CPeI0e/hF+jV7AJM4PO7KWCyr390bSiNtEtQM=);strokeColor=#000000;spacingTop=-3;spacingBottom=-3;spacingLeft=-3;spacingRight=-3;labelBackgroundColor=none;rounded=0;html=1;whiteSpace=wrap;" vertex="1" parent="1">
          <mxGeometry x="1904" y="2009" width="200" height="60" as="geometry" />
        </mxCell>
        <mxCell id="0qjY-80UsohrKf_hPCvL-13" value="&lt;font style=&quot;font-size:11px;font-family:Helvetica;color:#000000;direction:ltr;letter-spacing:0px;line-height:120%;opacity:1&quot;&gt;init tornado webapp and httpserver&lt;/font&gt;" style="verticalAlign=middle;align=center;vsdxID=25;fillColor=#ffffff;gradientColor=none;shape=stencil(nZBRDoQgDERP03+WHsHFe5iISyOCQdT19kIaIxq//Jtp3zTpAFaTaUYNUkwx+F6v1EYD+AUpyRkdKCYFqACrzgf9C352LfuxyWRWg1/yhT/nRE5IsZWuZtCSK8CPeI0e/hF+jV7AJM4PO7KWCyr390bSiNtEtQM=);strokeColor=#000000;spacingTop=-3;spacingBottom=-3;spacingLeft=-3;spacingRight=-3;labelBackgroundColor=none;rounded=0;html=1;whiteSpace=wrap;" vertex="1" parent="1">
          <mxGeometry x="1944" y="2099" width="120" height="60" as="geometry" />
        </mxCell>
        <mxCell id="0qjY-80UsohrKf_hPCvL-14" value="&lt;font style=&quot;font-size:11px;font-family:Helvetica;color:#000000;direction:ltr;letter-spacing:0px;line-height:120%;opacity:1&quot;&gt;确保base_url为默认url&lt;/font&gt;" style="verticalAlign=middle;align=center;vsdxID=29;fillColor=#ffffff;gradientColor=none;shape=stencil(nZBRDoQgDERP03+WHsHFe5iISyOCQdT19kIaIxq//Jtp3zTpAFaTaUYNUkwx+F6v1EYD+AUpyRkdKCYFqACrzgf9C352LfuxyWRWg1/yhT/nRE5IsZWuZtCSK8CPeI0e/hF+jV7AJM4PO7KWCyr390bSiNtEtQM=);strokeColor=#000000;spacingTop=-3;spacingBottom=-3;spacingLeft=-3;spacingRight=-3;labelBackgroundColor=none;rounded=0;html=1;whiteSpace=wrap;" vertex="1" parent="1">
          <mxGeometry x="2554" y="1949" width="160" height="30" as="geometry" />
        </mxCell>
        <mxCell id="0qjY-80UsohrKf_hPCvL-15" value="&lt;font style=&quot;font-size:11px;font-family:Helvetica;color:#000000;direction:ltr;letter-spacing:0px;line-height:120%;opacity:1&quot;&gt;不需要password或password通过？&lt;/font&gt;" style="verticalAlign=middle;align=center;vsdxID=30;fillColor=#ffffff;gradientColor=none;shape=stencil(nZBLDoQgEERP03uk4wnUuYeJKB0RDDKj3l5Ix/iJcTG7KnhVSRdgMel6VCDFFLzr1UxN0IAlSElWK08hKsAKsGidV513X9uwH+tEJjW4X2pYOJeLFJFiZcvuw6QheyIzcUXzF/bWukcf2b9bL2QUx4ktGcMLnf/vk8QnnhOrDQ==);strokeColor=#000000;spacingTop=-3;spacingBottom=-3;spacingLeft=-3;spacingRight=-3;labelBackgroundColor=none;rounded=0;html=1;whiteSpace=wrap;" vertex="1" parent="1">
          <mxGeometry x="2564" y="1999" width="140" height="60" as="geometry" />
        </mxCell>
        <mxCell id="0qjY-80UsohrKf_hPCvL-16" value="&lt;font style=&quot;font-size:11px;font-family:Helvetica;color:#000000;direction:ltr;letter-spacing:0px;line-height:120%;opacity:1&quot;&gt;exit（1）&lt;/font&gt;" style="verticalAlign=middle;align=center;vsdxID=32;fillColor=#ffffff;gradientColor=none;shape=stencil(nZBdDsIgEIRPs6+Ggp6g1gt4AiKrbERoaP09vbQTEzQ+9W1n5ptsMmTawdueSathzOnMd3GjJ7MlrSV6zjKWi0xHpj2mzKecrtFB97aQWs0OO3SaidbK5sNeXgxvvdrARe2SbtO7B0KF6FmrHcAgsQIbtRj96L/wYvQLLMc8B4aSELBmnf/OVyxMb7o3);strokeColor=#000000;spacingTop=-3;spacingBottom=-3;spacingLeft=-3;spacingRight=-3;labelBackgroundColor=none;rounded=1;html=1;whiteSpace=wrap;" vertex="1" parent="1">
          <mxGeometry x="2854" y="2239" width="80" height="30" as="geometry" />
        </mxCell>
        <mxCell id="0qjY-80UsohrKf_hPCvL-17" value="&lt;font style=&quot;font-size:11px;font-family:Helvetica;color:#000000;direction:ltr;letter-spacing:0px;line-height:120%;opacity:1&quot;&gt;实例化&lt;/font&gt;&lt;font style=&quot;font-size:11px;font-family:Helvetica;color:#99ff99;direction:ltr;letter-spacing:0px;line-height:120%;opacity:1&quot;&gt;web_app&lt;/font&gt;" style="verticalAlign=middle;align=center;vsdxID=36;fillColor=#ffffff;gradientColor=none;shape=stencil(nZBRDoQgDERP03+WHsHFe5iISyOCQdT19kIaIxq//Jtp3zTpAFaTaUYNUkwx+F6v1EYD+AUpyRkdKCYFqACrzgf9C352LfuxyWRWg1/yhT/nRE5IsZWuZtCSK8CPeI0e/hF+jV7AJM4PO7KWCyr390bSiNtEtQM=);strokeColor=#000000;spacingTop=-3;spacingBottom=-3;spacingLeft=-3;spacingRight=-3;labelBackgroundColor=none;rounded=0;html=1;whiteSpace=wrap;" vertex="1" parent="1">
          <mxGeometry x="2574" y="2259" width="120" height="40" as="geometry" />
        </mxCell>
        <mxCell id="0qjY-80UsohrKf_hPCvL-18" value="&lt;font style=&quot;font-size:11px;font-family:Helvetica;color:#000000;direction:ltr;letter-spacing:0px;line-height:120%;opacity:1&quot;&gt;实例化&lt;/font&gt;&lt;font style=&quot;font-size:11px;font-family:Helvetica;color:#99ff99;direction:ltr;letter-spacing:0px;line-height:120%;opacity:1&quot;&gt;Http_server&lt;br/&gt;&lt;/font&gt;&lt;font style=&quot;font-size:11px;font-family:Helvetica;color:#000000;direction:ltr;letter-spacing:0px;line-height:120%;opacity:1&quot;&gt;(使用ssl_options)&lt;/font&gt;&lt;font style=&quot;font-size:11px;font-family:Helvetica;color:#99ff99;direction:ltr;letter-spacing:0px;line-height:120%;opacity:1&quot;&gt;&lt;br/&gt;&lt;/font&gt;" style="verticalAlign=middle;align=center;vsdxID=39;fillColor=#ffffff;gradientColor=none;shape=stencil(nZBRDoQgDERP03+WHsHFe5iISyOCQdT19kIaIxq//Jtp3zTpAFaTaUYNUkwx+F6v1EYD+AUpyRkdKCYFqACrzgf9C352LfuxyWRWg1/yhT/nRE5IsZWuZtCSK8CPeI0e/hF+jV7AJM4PO7KWCyr390bSiNtEtQM=);strokeColor=#000000;spacingTop=-3;spacingBottom=-3;spacingLeft=-3;spacingRight=-3;labelBackgroundColor=none;rounded=0;html=1;whiteSpace=wrap;" vertex="1" parent="1">
          <mxGeometry x="2574" y="2479" width="120" height="40" as="geometry" />
        </mxCell>
        <mxCell id="0qjY-80UsohrKf_hPCvL-19" value="&lt;font style=&quot;font-size:11px;font-family:Helvetica;color:#000000;direction:ltr;letter-spacing:0px;line-height:120%;opacity:1&quot;&gt;bind Http_server&lt;/font&gt;" style="verticalAlign=middle;align=center;vsdxID=40;fillColor=#ffffff;gradientColor=none;shape=stencil(nZBRDoQgDERP03+WHsHFe5iISyOCQdT19kIaIxq//Jtp3zTpAFaTaUYNUkwx+F6v1EYD+AUpyRkdKCYFqACrzgf9C352LfuxyWRWg1/yhT/nRE5IsZWuZtCSK8CPeI0e/hF+jV7AJM4PO7KWCyr390bSiNtEtQM=);strokeColor=#000000;spacingTop=-3;spacingBottom=-3;spacingLeft=-3;spacingRight=-3;labelBackgroundColor=none;rounded=0;html=1;whiteSpace=wrap;" vertex="1" parent="1">
          <mxGeometry x="2574" y="2559" width="120" height="30" as="geometry" />
        </mxCell>
        <mxCell id="0qjY-80UsohrKf_hPCvL-20" value="&lt;font style=&quot;font-size:11px;font-family:Helvetica;color:#000000;direction:ltr;letter-spacing:0px;line-height:120%;opacity:1&quot;&gt;init terminal&lt;br/&gt;&lt;/font&gt;&lt;font style=&quot;font-size:11px;font-family:Helvetica;color:#000000;direction:ltr;letter-spacing:0px;line-height:120%;opacity:1&quot;&gt;（init  shell， launch instance of  TerminalManager，add handler of the url about terminal ）&lt;/font&gt;" style="verticalAlign=middle;align=center;vsdxID=27;fillColor=#ffffff;gradientColor=none;shape=stencil(nZBRDoQgDERP03+WHsHFe5iISyOCQdT19kIaIxq//Jtp3zTpAFaTaUYNUkwx+F6v1EYD+AUpyRkdKCYFqACrzgf9C352LfuxyWRWg1/yhT/nRE5IsZWuZtCSK8CPeI0e/hF+jV7AJM4PO7KWCyr390bSiNtEtQM=);strokeColor=#000000;spacingTop=-3;spacingBottom=-3;spacingLeft=-3;spacingRight=-3;labelBackgroundColor=none;rounded=0;html=1;whiteSpace=wrap;" vertex="1" parent="1">
          <mxGeometry x="1876" y="2199" width="255" height="60" as="geometry" />
        </mxCell>
        <mxCell id="0qjY-80UsohrKf_hPCvL-21" value="&lt;font style=&quot;font-size:11px;font-family:Helvetica;color:#000000;direction:ltr;letter-spacing:0px;line-height:120%;opacity:1&quot;&gt;init signal&lt;br/&gt;&lt;/font&gt;&lt;font style=&quot;font-size:11px;font-family:Helvetica;color:#000000;direction:ltr;letter-spacing:0px;line-height:120%;opacity:1&quot;&gt;（set handler func for every signal，e.g. SIGINT...）&lt;/font&gt;" style="verticalAlign=middle;align=center;vsdxID=44;fillColor=#ffffff;gradientColor=none;shape=stencil(nZBRDoQgDERP03+WHsHFe5iISyOCQdT19kIaIxq//Jtp3zTpAFaTaUYNUkwx+F6v1EYD+AUpyRkdKCYFqACrzgf9C352LfuxyWRWg1/yhT/nRE5IsZWuZtCSK8CPeI0e/hF+jV7AJM4PO7KWCyr390bSiNtEtQM=);strokeColor=#000000;spacingTop=-3;spacingBottom=-3;spacingLeft=-3;spacingRight=-3;labelBackgroundColor=none;rounded=0;html=1;whiteSpace=wrap;" vertex="1" parent="1">
          <mxGeometry x="1894" y="2279" width="220" height="60" as="geometry" />
        </mxCell>
        <mxCell id="0qjY-80UsohrKf_hPCvL-22" value="&lt;font style=&quot;font-size:11px;font-family:Helvetica;color:#000000;direction:ltr;letter-spacing:0px;line-height:120%;opacity:1&quot;&gt;init extension&lt;br/&gt;&lt;/font&gt;&lt;font style=&quot;font-size:11px;font-family:Helvetica;color:#000000;direction:ltr;letter-spacing:0px;line-height:120%;opacity:1&quot;&gt;(load server extensions specified by config)&lt;br/&gt;&lt;/font&gt;&lt;font style=&quot;font-size:11px;font-family:Helvetica;color:#000000;direction:ltr;letter-spacing:0px;line-height:120%;opacity:1&quot;&gt;（import，then call .load function）&lt;/font&gt;" style="verticalAlign=middle;align=center;vsdxID=46;fillColor=#ffffff;gradientColor=none;shape=stencil(nZBRDoQgDERP03+WHsHFe5iISyOCQdT19kIaIxq//Jtp3zTpAFaTaUYNUkwx+F6v1EYD+AUpyRkdKCYFqACrzgf9C352LfuxyWRWg1/yhT/nRE5IsZWuZtCSK8CPeI0e/hF+jV7AJM4PO7KWCyr390bSiNtEtQM=);strokeColor=#000000;spacingTop=-3;spacingBottom=-3;spacingLeft=-3;spacingRight=-3;labelBackgroundColor=none;rounded=0;html=1;whiteSpace=wrap;" vertex="1" parent="1">
          <mxGeometry x="1869" y="2359" width="270" height="60" as="geometry" />
        </mxCell>
        <mxCell id="0qjY-80UsohrKf_hPCvL-23" value="&lt;font style=&quot;font-size:11px;font-family:Helvetica;color:#000000;direction:ltr;letter-spacing:0px;line-height:120%;opacity:1&quot;&gt;init mime overrides&lt;br/&gt;&lt;/font&gt;&lt;font style=&quot;font-size:11px;font-family:Helvetica;color:#000000;direction:ltr;letter-spacing:0px;line-height:120%;opacity:1&quot;&gt;(tell mimetypes to not trust the win Registry,and ensure css,js are correct in mimetype.)&lt;/font&gt;" style="verticalAlign=middle;align=center;vsdxID=48;fillColor=#ffffff;gradientColor=none;shape=stencil(nZBRDoQgDERP03+WHsHFe5iISyOCQdT19kIaIxq//Jtp3zTpAFaTaUYNUkwx+F6v1EYD+AUpyRkdKCYFqACrzgf9C352LfuxyWRWg1/yhT/nRE5IsZWuZtCSK8CPeI0e/hF+jV7AJM4PO7KWCyr390bSiNtEtQM=);strokeColor=#000000;spacingTop=-3;spacingBottom=-3;spacingLeft=-3;spacingRight=-3;labelBackgroundColor=none;rounded=0;html=1;whiteSpace=wrap;" vertex="1" parent="1">
          <mxGeometry x="1869" y="2449" width="270" height="60" as="geometry" />
        </mxCell>
        <mxCell id="0qjY-80UsohrKf_hPCvL-24" value="&lt;font style=&quot;font-size:11px;font-family:Helvetica;color:#000000;direction:ltr;letter-spacing:0px;line-height:120%;opacity:1&quot;&gt;init shutdown no activity&lt;br/&gt;&lt;/font&gt;&lt;font style=&quot;font-size:11px;font-family:Helvetica;color:#000000;direction:ltr;letter-spacing:0px;line-height:120%;opacity:1&quot;&gt;(shutdown the server after N seconds with no kernels or termanals running and no activity）&lt;/font&gt;" style="verticalAlign=middle;align=center;vsdxID=50;fillColor=#ffffff;gradientColor=none;shape=stencil(nZBRDoQgDERP03+WHsHFe5iISyOCQdT19kIaIxq//Jtp3zTpAFaTaUYNUkwx+F6v1EYD+AUpyRkdKCYFqACrzgf9C352LfuxyWRWg1/yhT/nRE5IsZWuZtCSK8CPeI0e/hF+jV7AJM4PO7KWCyr390bSiNtEtQM=);strokeColor=#000000;spacingTop=-3;spacingBottom=-3;spacingLeft=-3;spacingRight=-3;labelBackgroundColor=none;rounded=0;html=1;whiteSpace=wrap;" vertex="1" parent="1">
          <mxGeometry x="1894" y="2541" width="220" height="60" as="geometry" />
        </mxCell>
        <mxCell id="0qjY-80UsohrKf_hPCvL-25" value="&lt;font style=&quot;font-size:11px;font-family:Helvetica;color:#000000;direction:ltr;letter-spacing:0px;line-height:120%;opacity:1&quot;&gt;结束&lt;/font&gt;" style="verticalAlign=middle;align=center;vsdxID=53;fillColor=#ffffff;gradientColor=none;shape=stencil(nZDNDsIgEISfZu8UTp5rfQGfgMgqGxEair9PL+3EBI2n3nZmvskmQ6afvB2ZtJpKTme+iyuezJa0lug5S6kXmYFMf0yZTzldo4MebSW1Whx26HQzrZXNh728GN4GHkqXdJufPRApRM9W7QAGiQ3YqdXoR/+FV6NfYD2WMTCThIAt2/x3vGpheDO8AQ==);strokeColor=#000000;spacingTop=-3;spacingBottom=-3;spacingLeft=-3;spacingRight=-3;labelBackgroundColor=none;rounded=1;html=1;whiteSpace=wrap;" vertex="1" parent="1">
          <mxGeometry x="2574" y="2739" width="120" height="60" as="geometry" />
        </mxCell>
        <mxCell id="0qjY-80UsohrKf_hPCvL-26" value="&lt;font style=&quot;font-size:11px;font-family:Helvetica;color:#000000;direction:ltr;letter-spacing:0px;line-height:120%;opacity:1&quot;&gt;end&lt;/font&gt;" style="verticalAlign=middle;align=center;vsdxID=52;fillColor=#ffffff;gradientColor=none;shape=stencil(nZDNDsIgEISfZu8UTp5rfQGfgMgqGxEair9PL+3EBI2n3nZmvskmQ6afvB2ZtJpKTme+iyuezJa0lug5S6kXmYFMf0yZTzldo4MebSW1Whx26HQzrZXNh728GN4GHkqXdJufPRApRM9W7QAGiQ3YqdXoR/+FV6NfYD2WMTCThIAt2/x3vGpheDO8AQ==);strokeColor=#000000;spacingTop=-3;spacingBottom=-3;spacingLeft=-3;spacingRight=-3;labelBackgroundColor=none;rounded=1;html=1;whiteSpace=wrap;" vertex="1" parent="1">
          <mxGeometry x="1944" y="2629" width="120" height="60" as="geometry" />
        </mxCell>
        <mxCell id="0qjY-80UsohrKf_hPCvL-27" value="&lt;font style=&quot;font-size:11px;font-family:Helvetica;color:#000000;direction:ltr;letter-spacing:0px;line-height:120%;opacity:1&quot;&gt;self._despatching?&lt;/font&gt;" style="verticalAlign=middle;align=center;vsdxID=16;fillColor=#ffffff;gradientColor=none;shape=stencil(nZBLDoQgEERP03uk4wnUuYeJKB0RDDKj3l5Ix/iJcTG7KnhVSRdgMel6VCDFFLzr1UxN0IAlSElWK08hKsAKsGidV513X9uwH+tEJjW4X2pYOJeLFJFiZcvuw6QheyIzcUXzF/bWukcf2b9bL2QUx4ktGcMLnf/vk8QnnhOrDQ==);strokeColor=#000000;spacingTop=-3;spacingBottom=-3;spacingLeft=-3;spacingRight=-3;labelBackgroundColor=none;rounded=0;html=1;whiteSpace=wrap;" vertex="1" parent="1">
          <mxGeometry x="1939" y="1609" width="130" height="60" as="geometry" />
        </mxCell>
        <mxCell id="0qjY-80UsohrKf_hPCvL-28" value="&lt;font style=&quot;font-size:11px;font-family:Helvetica;color:#000000;direction:ltr;letter-spacing:0px;line-height:120%;opacity:1&quot;&gt;return&lt;/font&gt;" style="verticalAlign=middle;align=center;vsdxID=56;fillColor=#ffffff;gradientColor=none;shape=stencil(nZBdDsIgEIRPs+8UEi9Q6wU8AZFVNiI0FH9PL+3EBI1PfduZ+SabDJl+8nZk0moqOZ35Lq54MlvSWqLnLKVeZAYy/TFlPuV0jQ56tJXUanHYodPNtFY2H/byYngbeChd0m1+9kCkED1btQMYJDZgp1ajH/0XXo1+gfVYxsBMEgK2bPPf8aqF4c3wBg==);strokeColor=#000000;spacingTop=-3;spacingBottom=-3;spacingLeft=-3;spacingRight=-3;labelBackgroundColor=none;rounded=1;html=1;whiteSpace=wrap;" vertex="1" parent="1">
          <mxGeometry x="2104" y="1729" width="120" height="40" as="geometry" />
        </mxCell>
        <mxCell id="0qjY-80UsohrKf_hPCvL-29" style="vsdxID=57;edgeStyle=none;startArrow=none;endArrow=classic;startSize=5;endSize=5;strokeColor=#000000;spacingTop=0;spacingBottom=0;spacingLeft=0;spacingRight=0;verticalAlign=middle;html=1;labelBackgroundColor=#ffffff;rounded=1;" edge="1" parent="1">
          <mxGeometry relative="1" as="geometry">
            <mxPoint x="24" y="116" as="offset" />
            <Array as="points" />
            <mxPoint x="2144" y="1369" as="sourcePoint" />
            <mxPoint x="2094" y="1399" as="targetPoint" />
          </mxGeometry>
        </mxCell>
        <mxCell id="0qjY-80UsohrKf_hPCvL-30" value="&lt;font style=&quot;font-size:11px;font-family:Helvetica;color:#000000;direction:ltr;letter-spacing:0px;line-height:120%;opacity:1&quot;&gt;JupyterApp&lt;/font&gt;" style="verticalAlign=middle;align=center;vsdxID=58;fillColor=none;gradientColor=none;shape=stencil(nZBRDoQgDERP03+WHsHFe5iISyOCQdT19kIaIxq//Jtp3zTpAFaTaUYNUkwx+F6v1EYD+AUpyRkdKCYFqACrzgf9C352LfuxyWRWg1/yhT/nRE5IsZWuZtCSK8CPeI0e/hF+jV7AJM4PO7KWCyr390bSiNtEtQM=);strokeColor=none;spacingTop=-3;spacingBottom=-3;spacingLeft=-3;spacingRight=-3;labelBackgroundColor=none;rounded=0;html=1;whiteSpace=wrap;" vertex="1" parent="1">
          <mxGeometry x="2144" y="1349" width="80" height="20" as="geometry" />
        </mxCell>
        <mxCell id="0qjY-80UsohrKf_hPCvL-31" value="&lt;font style=&quot;font-size:11px;font-family:Helvetica;color:#000000;direction:ltr;letter-spacing:0px;line-height:120%;opacity:1&quot;&gt;tornado_settings的初始化&lt;/font&gt;" style="verticalAlign=middle;align=center;vsdxID=60;fillColor=#ffffff;gradientColor=none;shape=stencil(nZBRDoQgDERP03+WHsHFe5iISyOCQdT19kIaIxq//Jtp3zTpAFaTaUYNUkwx+F6v1EYD+AUpyRkdKCYFqACrzgf9C352LfuxyWRWg1/yhT/nRE5IsZWuZtCSK8CPeI0e/hF+jV7AJM4PO7KWCyr390bSiNtEtQM=);strokeColor=#000000;spacingTop=-3;spacingBottom=-3;spacingLeft=-3;spacingRight=-3;labelBackgroundColor=none;rounded=0;html=1;whiteSpace=wrap;" vertex="1" parent="1">
          <mxGeometry x="2559" y="1869" width="150" height="30" as="geometry" />
        </mxCell>
        <mxCell id="0qjY-80UsohrKf_hPCvL-32" value="&lt;font style=&quot;font-size:11px;font-family:Helvetica;color:#000000;direction:ltr;letter-spacing:0px;line-height:120%;opacity:1&quot;&gt;&lt;br/&gt;&lt;/font&gt;&lt;font style=&quot;font-size:11px;font-family:Helvetica;color:#000000;direction:ltr;letter-spacing:0px;line-height:120%;opacity:1&quot;&gt;&lt;br/&gt;&lt;/font&gt;&lt;font style=&quot;font-size:11px;font-family:helvetica;color:#000000;direction:ltr;letter-spacing:0px;line-height:120%;opacity:1&quot;&gt;socket options validation（某些options是否互斥或不可用）&lt;/font&gt;&lt;font style=&quot;font-size:11px;font-family:Helvetica;color:#000000;direction:ltr;letter-spacing:0px;line-height:120%;opacity:1&quot;&gt;&lt;br/&gt;&lt;/font&gt;&lt;font style=&quot;font-size:11px;font-family:Helvetica;color:#000000;direction:ltr;letter-spacing:0px;line-height:120%;opacity:1&quot;&gt;&lt;br/&gt;&lt;/font&gt;&lt;font style=&quot;font-size:11px;font-family:Helvetica;color:#000000;direction:ltr;letter-spacing:0px;line-height:120%;opacity:1&quot;&gt;&lt;br/&gt;&lt;/font&gt;&lt;font style=&quot;font-size:11px;font-family:Helvetica;color:#000000;direction:ltr;letter-spacing:0px;line-height:120%;opacity:1&quot;&gt;&lt;br/&gt;&lt;/font&gt;" style="verticalAlign=middle;align=center;vsdxID=34;fillColor=#ffffff;gradientColor=none;shape=stencil(nZBLDoQgEERP03uk4wnUuYeJKB0RDDKj3l5Ix/iJcTG7KnhVSRdgMel6VCDFFLzr1UxN0IAlSElWK08hKsAKsGidV513X9uwH+tEJjW4X2pYOJeLFJFiZcvuw6QheyIzcUXzF/bWukcf2b9bL2QUx4ktGcMLnf/vk8QnnhOrDQ==);strokeColor=#000000;spacingTop=-3;spacingBottom=-3;spacingLeft=-3;spacingRight=-3;labelBackgroundColor=none;rounded=0;html=1;whiteSpace=wrap;" vertex="1" parent="1">
          <mxGeometry x="2549" y="2119" width="170" height="80" as="geometry" />
        </mxCell>
        <mxCell id="0qjY-80UsohrKf_hPCvL-33" value="&lt;font style=&quot;font-size:11px;font-family:Helvetica;color:#000000;direction:ltr;letter-spacing:0px;line-height:120%;opacity:1&quot;&gt;ssl options相关的初始化&lt;/font&gt;" style="verticalAlign=middle;align=center;vsdxID=37;fillColor=#ffffff;gradientColor=none;shape=stencil(nZBRDoQgDERP03+WHsHFe5iISyOCQdT19kIaIxq//Jtp3zTpAFaTaUYNUkwx+F6v1EYD+AUpyRkdKCYFqACrzgf9C352LfuxyWRWg1/yhT/nRE5IsZWuZtCSK8CPeI0e/hF+jV7AJM4PO7KWCyr390bSiNtEtQM=);strokeColor=#000000;spacingTop=-3;spacingBottom=-3;spacingLeft=-3;spacingRight=-3;labelBackgroundColor=none;rounded=0;html=1;whiteSpace=wrap;" vertex="1" parent="1">
          <mxGeometry x="2559" y="2329" width="150" height="30" as="geometry" />
        </mxCell>
        <mxCell id="0qjY-80UsohrKf_hPCvL-34" style="vsdxID=66;edgeStyle=none;startArrow=none;endArrow=classic;startSize=5;endSize=9;strokeColor=#000000;spacingTop=0;spacingBottom=0;spacingLeft=0;spacingRight=0;verticalAlign=middle;html=1;labelBackgroundColor=#ffffff;rounded=1;" edge="1" parent="1">
          <mxGeometry relative="1" as="geometry">
            <mxPoint x="-33" y="103" as="offset" />
            <Array as="points" />
            <mxPoint x="2719" y="2579" as="sourcePoint" />
            <mxPoint x="2784" y="2579" as="targetPoint" />
          </mxGeometry>
        </mxCell>
        <mxCell id="0qjY-80UsohrKf_hPCvL-35" value="&lt;font style=&quot;font-size:11px;font-family:Helvetica;color:#000000;direction:ltr;letter-spacing:0px;line-height:120%;opacity:1&quot;&gt;check the notebook app&amp;prime;s securaty&lt;br/&gt;&lt;/font&gt;&lt;font style=&quot;font-size:11px;font-family:Helvetica;color:#000000;direction:ltr;letter-spacing:0px;line-height:120%;opacity:1&quot;&gt;(使用ssl_options)&lt;/font&gt;" style="verticalAlign=middle;align=center;vsdxID=64;fillColor=#ffffff;gradientColor=none;shape=stencil(nZBRDoQgDERP03+WHsHFe5iISyOCQdT19kIaIxq//Jtp3zTpAFaTaUYNUkwx+F6v1EYD+AUpyRkdKCYFqACrzgf9C352LfuxyWRWg1/yhT/nRE5IsZWuZtCSK8CPeI0e/hF+jV7AJM4PO7KWCyr390bSiNtEtQM=);strokeColor=#000000;spacingTop=-3;spacingBottom=-3;spacingLeft=-3;spacingRight=-3;labelBackgroundColor=none;rounded=0;html=1;whiteSpace=wrap;" vertex="1" parent="1">
          <mxGeometry x="2574" y="2379" width="120" height="60" as="geometry" />
        </mxCell>
        <mxCell id="0qjY-80UsohrKf_hPCvL-36" value="&lt;font style=&quot;font-size:11px;font-family:Helvetica;color:#99ff99;direction:ltr;letter-spacing:0px;line-height:120%;opacity:1&quot;&gt;if self.sock:_bind_http_server_unix()&lt;br/&gt;&lt;/font&gt;&lt;font style=&quot;font-size:11px;font-family:Helvetica;color:#99ff99;direction:ltr;letter-spacing:0px;line-height:120%;opacity:1&quot;&gt;else:_bind_http_server_tcp()&lt;/font&gt;" style="verticalAlign=middle;align=center;vsdxID=67;fillColor=#ffffff;gradientColor=none;shape=stencil(nZBRDoQgDERP03+WHsHFe5iISyOCQdT19kIaIxq//Jtp3zTpAFaTaUYNUkwx+F6v1EYD+AUpyRkdKCYFqACrzgf9C352LfuxyWRWg1/yhT/nRE5IsZWuZtCSK8CPeI0e/hF+jV7AJM4PO7KWCyr390bSiNtEtQM=);strokeColor=#000000;spacingTop=-3;spacingBottom=-3;spacingLeft=-3;spacingRight=-3;labelBackgroundColor=none;rounded=0;html=1;whiteSpace=wrap;" vertex="1" parent="1">
          <mxGeometry x="2804" y="2541" width="290" height="65" as="geometry" />
        </mxCell>
        <mxCell id="0qjY-80UsohrKf_hPCvL-37" value="&lt;font style=&quot;font-size:11px;font-family:Helvetica;color:#000000;direction:ltr;letter-spacing:0px;line-height:120%;opacity:1&quot;&gt;success?&lt;/font&gt;" style="verticalAlign=middle;align=center;vsdxID=42;fillColor=#ffffff;gradientColor=none;shape=stencil(nZBLDoQgEERP03uk4wnUuYeJKB0RDDKj3l5Ix/iJcTG7KnhVSRdgMel6VCDFFLzr1UxN0IAlSElWK08hKsAKsGidV513X9uwH+tEJjW4X2pYOJeLFJFiZcvuw6QheyIzcUXzF/bWukcf2b9bL2QUx4ktGcMLnf/vk8QnnhOrDQ==);strokeColor=#000000;spacingTop=-3;spacingBottom=-3;spacingLeft=-3;spacingRight=-3;labelBackgroundColor=none;rounded=0;html=1;whiteSpace=wrap;" vertex="1" parent="1">
          <mxGeometry x="2579" y="2639" width="110" height="50" as="geometry" />
        </mxCell>
        <mxCell id="0qjY-80UsohrKf_hPCvL-38" value="&lt;font style=&quot;font-size:11px;font-family:Helvetica;color:#000000;direction:ltr;letter-spacing:0px;line-height:120%;opacity:1&quot;&gt;start &lt;/font&gt;" style="verticalAlign=middle;align=center;vsdxID=71;fillColor=#ffffff;gradientColor=none;shape=stencil(nZDNDsIgEISfZu8UTp5rfQGfgMgqGxEair9PL+3EBI2n3nZmvskmQ6afvB2ZtJpKTme+iyuezJa0lug5S6kXmYFMf0yZTzldo4MebSW1Whx26HQzrZXNh728GN4GHkqXdJufPRApRM9W7QAGiQ3YqdXoR/+FV6NfYD2WMTCThIAt2/x3vGpheDO8AQ==);strokeColor=#000000;spacingTop=-3;spacingBottom=-3;spacingLeft=-3;spacingRight=-3;labelBackgroundColor=none;rounded=1;html=1;whiteSpace=wrap;" vertex="1" parent="1">
          <mxGeometry x="1944" y="1129" width="120" height="60" as="geometry" />
        </mxCell>
        <mxCell id="0qjY-80UsohrKf_hPCvL-39" value="&lt;font style=&quot;font-size:11px;font-family:Helvetica;color:#000000;direction:ltr;letter-spacing:0px;line-height:120%;opacity:1&quot;&gt;start&lt;/font&gt;" style="verticalAlign=middle;align=center;vsdxID=73;fillColor=#FF9999;gradientColor=none;shape=stencil(nZDNDsIgEISfZu8UTp5rfQGfgMgqGxEair9PL+3EBI2n3nZmvskmQ6afvB2ZtJpKTme+iyuezJa0lug5S6kXmYFMf0yZTzldo4MebSW1Whx26HQzrZXNh728GN4GHkqXdJufPRApRM9W7QAGiQ3YqdXoR/+FV6NfYD2WMTCThIAt2/x3vGpheDO8AQ==);strokeColor=#000000;spacingTop=-3;spacingBottom=-3;spacingLeft=-3;spacingRight=-3;labelBackgroundColor=none;rounded=1;html=1;whiteSpace=wrap;" vertex="1" parent="1">
          <mxGeometry x="836" y="1374" width="120" height="60" as="geometry" />
        </mxCell>
        <mxCell id="0qjY-80UsohrKf_hPCvL-40" value="&lt;font style=&quot;font-size:11px;font-family:Helvetica;color:#000000;direction:ltr;letter-spacing:0px;line-height:120%;opacity:1&quot;&gt;execute &lt;/font&gt;&lt;font style=&quot;font-size:11px;font-family:Helvetica;color:#99ff99;direction:ltr;letter-spacing:0px;line-height:120%;opacity:1&quot;&gt;subcommand&lt;/font&gt;" style="verticalAlign=middle;align=center;vsdxID=76;fillColor=#FF9999;gradientColor=none;shape=stencil(nZBRDoQgDERP03+WHsHFe5iISyOCQdT19kIaIxq//Jtp3zTpAFaTaUYNUkwx+F6v1EYD+AUpyRkdKCYFqACrzgf9C352LfuxyWRWg1/yhT/nRE5IsZWuZtCSK8CPeI0e/hF+jV7AJM4PO7KWCyr390bSiNtEtQM=);strokeColor=#000000;spacingTop=-3;spacingBottom=-3;spacingLeft=-3;spacingRight=-3;labelBackgroundColor=none;rounded=0;html=1;whiteSpace=wrap;" vertex="1" parent="1">
          <mxGeometry x="836" y="1524" width="120" height="40" as="geometry" />
        </mxCell>
        <mxCell id="0qjY-80UsohrKf_hPCvL-41" value="&lt;font style=&quot;font-size:11px;font-family:Helvetica;color:#99ff99;direction:ltr;letter-spacing:0px;line-height:120%;opacity:1&quot;&gt;start subapp&lt;/font&gt;" style="verticalAlign=middle;align=center;vsdxID=79;fillColor=#FF9999;gradientColor=none;shape=stencil(nZBRDoQgDERP03+WHsHFe5iISyOCQdT19kIaIxq//Jtp3zTpAFaTaUYNUkwx+F6v1EYD+AUpyRkdKCYFqACrzgf9C352LfuxyWRWg1/yhT/nRE5IsZWuZtCSK8CPeI0e/hF+jV7AJM4PO7KWCyr390bSiNtEtQM=);strokeColor=#000000;spacingTop=-3;spacingBottom=-3;spacingLeft=-3;spacingRight=-3;labelBackgroundColor=none;rounded=0;html=1;whiteSpace=wrap;" vertex="1" parent="1">
          <mxGeometry x="836" y="1684" width="120" height="30" as="geometry" />
        </mxCell>
        <mxCell id="0qjY-80UsohrKf_hPCvL-42" value="&lt;font style=&quot;font-size:11px;font-family:Helvetica;color:#000000;direction:ltr;letter-spacing:0px;line-height:120%;opacity:1&quot;&gt;write_default_config()&lt;/font&gt;" style="verticalAlign=middle;align=center;vsdxID=81;fillColor=#FF9999;gradientColor=none;shape=stencil(nZBRDoQgDERP03+WHsHFe5iISyOCQdT19kIaIxq//Jtp3zTpAFaTaUYNUkwx+F6v1EYD+AUpyRkdKCYFqACrzgf9C352LfuxyWRWg1/yhT/nRE5IsZWuZtCSK8CPeI0e/hF+jV7AJM4PO7KWCyr390bSiNtEtQM=);strokeColor=#000000;spacingTop=-3;spacingBottom=-3;spacingLeft=-3;spacingRight=-3;labelBackgroundColor=none;rounded=0;html=1;whiteSpace=wrap;" vertex="1" parent="1">
          <mxGeometry x="836" y="1824" width="120" height="30" as="geometry" />
        </mxCell>
        <mxCell id="0qjY-80UsohrKf_hPCvL-43" value="&lt;font style=&quot;font-size:11px;font-family:Helvetica;color:#000000;direction:ltr;letter-spacing:0px;line-height:120%;opacity:1&quot;&gt;self.sub command?&lt;/font&gt;" style="verticalAlign=middle;align=center;vsdxID=74;fillColor=#FF9999;gradientColor=none;shape=stencil(nZBLDoQgEERP03uk4wnUuYeJKB0RDDKj3l5Ix/iJcTG7KnhVSRdgMel6VCDFFLzr1UxN0IAlSElWK08hKsAKsGidV513X9uwH+tEJjW4X2pYOJeLFJFiZcvuw6QheyIzcUXzF/bWukcf2b9bL2QUx4ktGcMLnf/vk8QnnhOrDQ==);strokeColor=#000000;spacingTop=-3;spacingBottom=-3;spacingLeft=-3;spacingRight=-3;labelBackgroundColor=none;rounded=0;html=1;whiteSpace=wrap;" vertex="1" parent="1">
          <mxGeometry x="836" y="1464" width="120" height="40" as="geometry" />
        </mxCell>
        <mxCell id="0qjY-80UsohrKf_hPCvL-44" value="&lt;font style=&quot;font-size:11px;font-family:Helvetica;color:#000000;direction:ltr;letter-spacing:0px;line-height:120%;opacity:1&quot;&gt;self.subapp?&lt;/font&gt;" style="verticalAlign=middle;align=center;vsdxID=84;fillColor=#FF9999;gradientColor=none;shape=stencil(nZBLDoQgEERP03uk4wnUuYeJKB0RDDKj3l5Ix/iJcTG7KnhVSRdgMel6VCDFFLzr1UxN0IAlSElWK08hKsAKsGidV513X9uwH+tEJjW4X2pYOJeLFJFiZcvuw6QheyIzcUXzF/bWukcf2b9bL2QUx4ktGcMLnf/vk8QnnhOrDQ==);strokeColor=#000000;spacingTop=-3;spacingBottom=-3;spacingLeft=-3;spacingRight=-3;labelBackgroundColor=none;rounded=0;html=1;whiteSpace=wrap;" vertex="1" parent="1">
          <mxGeometry x="836" y="1614" width="120" height="40" as="geometry" />
        </mxCell>
        <mxCell id="0qjY-80UsohrKf_hPCvL-45" value="&lt;font style=&quot;font-size:11px;font-family:Helvetica;color:#000000;direction:ltr;letter-spacing:0px;line-height:120%;opacity:1&quot;&gt;self.generate_config?&lt;/font&gt;" style="verticalAlign=middle;align=center;vsdxID=87;fillColor=#FF9999;gradientColor=none;shape=stencil(nZBLDoQgEERP03uk4wnUuYeJKB0RDDKj3l5Ix/iJcTG7KnhVSRdgMel6VCDFFLzr1UxN0IAlSElWK08hKsAKsGidV513X9uwH+tEJjW4X2pYOJeLFJFiZcvuw6QheyIzcUXzF/bWukcf2b9bL2QUx4ktGcMLnf/vk8QnnhOrDQ==);strokeColor=#000000;spacingTop=-3;spacingBottom=-3;spacingLeft=-3;spacingRight=-3;labelBackgroundColor=none;rounded=0;html=1;whiteSpace=wrap;" vertex="1" parent="1">
          <mxGeometry x="836" y="1754" width="120" height="40" as="geometry" />
        </mxCell>
        <mxCell id="0qjY-80UsohrKf_hPCvL-46" value="&lt;font style=&quot;font-size:11px;font-family:Helvetica;color:#000000;direction:ltr;letter-spacing:0px;line-height:120%;opacity:1&quot;&gt;Raise no start&lt;/font&gt;" style="verticalAlign=middle;align=center;vsdxID=77;fillColor=#FF9999;gradientColor=none;shape=stencil(nZBRDoQgDERP03+WHsHFe5iISyOCQdT19kIaIxq//Jtp3zTpAFaTaUYNUkwx+F6v1EYD+AUpyRkdKCYFqACrzgf9C352LfuxyWRWg1/yhT/nRE5IsZWuZtCSK8CPeI0e/hF+jV7AJM4PO7KWCyr390bSiNtEtQM=);strokeColor=#000000;spacingTop=-3;spacingBottom=-3;spacingLeft=-3;spacingRight=-3;labelBackgroundColor=none;rounded=0;html=1;whiteSpace=wrap;" vertex="1" parent="1">
          <mxGeometry x="836" y="1934" width="120" height="30" as="geometry" />
        </mxCell>
        <mxCell id="0qjY-80UsohrKf_hPCvL-47" value="&lt;font style=&quot;font-size:11px;font-family:Helvetica;color:#000000;direction:ltr;letter-spacing:0px;line-height:120%;opacity:1&quot;&gt;allow root?&lt;/font&gt;" style="verticalAlign=middle;align=center;vsdxID=89;fillColor=none;gradientColor=none;shape=stencil(nZBLDoQgEERP03uk4wnUuYeJKB0RDDKj3l5Ix/iJcTG7KnhVSRdgMel6VCDFFLzr1UxN0IAlSElWK08hKsAKsGidV513X9uwH+tEJjW4X2pYOJeLFJFiZcvuw6QheyIzcUXzF/bWukcf2b9bL2QUx4ktGcMLnf/vk8QnnhOrDQ==);strokeColor=#000000;spacingTop=-3;spacingBottom=-3;spacingLeft=-3;spacingRight=-3;labelBackgroundColor=none;rounded=0;html=1;whiteSpace=wrap;" vertex="1" parent="1">
          <mxGeometry x="841" y="2014" width="110" height="50" as="geometry" />
        </mxCell>
        <mxCell id="0qjY-80UsohrKf_hPCvL-48" value="&lt;font style=&quot;font-size:11px;font-family:Helvetica;color:#000000;direction:ltr;letter-spacing:0px;line-height:120%;opacity:1&quot;&gt;is root?&lt;/font&gt;" style="verticalAlign=middle;align=center;vsdxID=91;fillColor=none;gradientColor=none;shape=stencil(nZBLDoQgEERP03uk4wnUuYeJKB0RDDKj3l5Ix/iJcTG7KnhVSRdgMel6VCDFFLzr1UxN0IAlSElWK08hKsAKsGidV513X9uwH+tEJjW4X2pYOJeLFJFiZcvuw6QheyIzcUXzF/bWukcf2b9bL2QUx4ktGcMLnf/vk8QnnhOrDQ==);strokeColor=#000000;spacingTop=-3;spacingBottom=-3;spacingLeft=-3;spacingRight=-3;labelBackgroundColor=none;rounded=0;html=1;whiteSpace=wrap;" vertex="1" parent="1">
          <mxGeometry x="986" y="2014" width="110" height="50" as="geometry" />
        </mxCell>
        <mxCell id="0qjY-80UsohrKf_hPCvL-49" value="&lt;font style=&quot;font-size:11px;font-family:Helvetica;color:#000000;direction:ltr;letter-spacing:0px;line-height:120%;opacity:1&quot;&gt;exit(0)&lt;/font&gt;" style="verticalAlign=middle;align=center;vsdxID=93;fillColor=none;gradientColor=none;shape=stencil(nZDNDsIgEISfZu8UTp5rfQGfgMgqGxEair9PL+3EBI2n3nZmvskmQ6afvB2ZtJpKTme+iyuezJa0lug5S6kXmYFMf0yZTzldo4MebSW1Whx26HQzrZXNh728GN4GHkqXdJufPRApRM9W7QAGiQ3YqdXoR/+FV6NfYD2WMTCThIAt2/x3vGpheDO8AQ==);strokeColor=#000000;spacingTop=-3;spacingBottom=-3;spacingLeft=-3;spacingRight=-3;labelBackgroundColor=none;rounded=1;html=1;whiteSpace=wrap;" vertex="1" parent="1">
          <mxGeometry x="1136" y="2009" width="120" height="60" as="geometry" />
        </mxCell>
        <mxCell id="0qjY-80UsohrKf_hPCvL-50" value="&lt;font style=&quot;font-size:11px;font-family:Helvetica;color:#000000;direction:ltr;letter-spacing:0px;line-height:120%;opacity:1&quot;&gt;print notebook info&lt;/font&gt;" style="verticalAlign=middle;align=center;vsdxID=95;fillColor=none;gradientColor=none;shape=stencil(nZBRDoQgDERP03+WHsHFe5iISyOCQdT19kIaIxq//Jtp3zTpAFaTaUYNUkwx+F6v1EYD+AUpyRkdKCYFqACrzgf9C352LfuxyWRWg1/yhT/nRE5IsZWuZtCSK8CPeI0e/hF+jV7AJM4PO7KWCyr390bSiNtEtQM=);strokeColor=#000000;spacingTop=-3;spacingBottom=-3;spacingLeft=-3;spacingRight=-3;labelBackgroundColor=none;rounded=0;html=1;whiteSpace=wrap;" vertex="1" parent="1">
          <mxGeometry x="836" y="2104" width="120" height="60" as="geometry" />
        </mxCell>
        <mxCell id="0qjY-80UsohrKf_hPCvL-51" style="vsdxID=96;fillColor=none;gradientColor=none;shape=stencil(nZBRDoQgDERP03+WHsHFe5iISyOCQdT19kIaIxq//Jtp3zTpAFaTaUYNUkwx+F6v1EYD+AUpyRkdKCYFqACrzgf9C352LfuxyWRWg1/yhT/nRE5IsZWuZtCSK8CPeI0e/hF+jV7AJM4PO7KWCyr390bSiNtEtQM=);dashed=1;dashPattern=4.00 2.00;strokeColor=#000000;spacingTop=-3;spacingBottom=-3;spacingLeft=-3;spacingRight=-3;labelBackgroundColor=none;rounded=0;html=1;whiteSpace=wrap;" vertex="1" parent="1">
          <mxGeometry x="2509" y="1849" width="625" height="1030" as="geometry" />
        </mxCell>
        <mxCell id="0qjY-80UsohrKf_hPCvL-52" style="vsdxID=98;fillColor=none;gradientColor=none;shape=stencil(nZBRDoQgDERP03+WHsHFe5iISyOCQdT19kIaIxq//Jtp3zTpAFaTaUYNUkwx+F6v1EYD+AUpyRkdKCYFqACrzgf9C352LfuxyWRWg1/yhT/nRE5IsZWuZtCSK8CPeI0e/hF+jV7AJM4PO7KWCyr390bSiNtEtQM=);dashed=1;dashPattern=4.00 2.00;strokeColor=#000000;spacingTop=-3;spacingBottom=-3;spacingLeft=-3;spacingRight=-3;labelBackgroundColor=none;rounded=0;html=1;whiteSpace=wrap;" vertex="1" parent="1">
          <mxGeometry x="1819" y="1079" width="455" height="1650" as="geometry" />
        </mxCell>
        <mxCell id="0qjY-80UsohrKf_hPCvL-53" value="&lt;font style=&quot;font-size:11px;font-family:Helvetica;color:#99ccff;direction:ltr;letter-spacing:0px;line-height:120%;opacity:1&quot;&gt;&amp;prime;dev&amp;prime; in notebook.__version__?&lt;/font&gt;" style="verticalAlign=middle;align=center;vsdxID=100;fillColor=none;gradientColor=none;shape=stencil(nZBLDoQgEERP03uk4wnUuYeJKB0RDDKj3l5Ix/iJcTG7KnhVSRdgMel6VCDFFLzr1UxN0IAlSElWK08hKsAKsGidV513X9uwH+tEJjW4X2pYOJeLFJFiZcvuw6QheyIzcUXzF/bWukcf2b9bL2QUx4ktGcMLnf/vk8QnnhOrDQ==);strokeColor=#000000;spacingTop=-3;spacingBottom=-3;spacingLeft=-3;spacingRight=-3;labelBackgroundColor=none;rounded=0;html=1;whiteSpace=wrap;" vertex="1" parent="1">
          <mxGeometry x="796" y="2194" width="200" height="50" as="geometry" />
        </mxCell>
        <mxCell id="0qjY-80UsohrKf_hPCvL-54" value="&lt;font style=&quot;font-size:11px;font-family:Helvetica;color:#000000;direction:ltr;letter-spacing:0px;line-height:120%;opacity:1&quot;&gt;print info&lt;/font&gt;" style="verticalAlign=middle;align=center;vsdxID=101;fillColor=none;gradientColor=none;shape=stencil(nZBRDoQgDERP03+WHsHFe5iISyOCQdT19kIaIxq//Jtp3zTpAFaTaUYNUkwx+F6v1EYD+AUpyRkdKCYFqACrzgf9C352LfuxyWRWg1/yhT/nRE5IsZWuZtCSK8CPeI0e/hF+jV7AJM4PO7KWCyr390bSiNtEtQM=);strokeColor=#000000;spacingTop=-3;spacingBottom=-3;spacingLeft=-3;spacingRight=-3;labelBackgroundColor=none;rounded=0;html=1;whiteSpace=wrap;" vertex="1" parent="1">
          <mxGeometry x="859" y="2274" width="75" height="20" as="geometry" />
        </mxCell>
        <mxCell id="0qjY-80UsohrKf_hPCvL-55" value="&lt;font style=&quot;font-size:11px;font-family:Helvetica;color:#000000;direction:ltr;letter-spacing:0px;line-height:120%;opacity:1&quot;&gt;write_server_info_file&lt;br/&gt;&lt;/font&gt;&lt;font style=&quot;font-size:11px;font-family:Helvetica;color:#000000;direction:ltr;letter-spacing:0px;line-height:120%;opacity:1&quot;&gt;write_browser_open_file&lt;/font&gt;" style="verticalAlign=middle;align=center;vsdxID=102;fillColor=none;gradientColor=none;shape=stencil(nZBRDoQgDERP03+WHsHFe5iISyOCQdT19kIaIxq//Jtp3zTpAFaTaUYNUkwx+F6v1EYD+AUpyRkdKCYFqACrzgf9C352LfuxyWRWg1/yhT/nRE5IsZWuZtCSK8CPeI0e/hF+jV7AJM4PO7KWCyr390bSiNtEtQM=);strokeColor=#000000;spacingTop=-3;spacingBottom=-3;spacingLeft=-3;spacingRight=-3;labelBackgroundColor=none;rounded=0;html=1;whiteSpace=wrap;" vertex="1" parent="1">
          <mxGeometry x="814" y="2324" width="165" height="30" as="geometry" />
        </mxCell>
        <mxCell id="0qjY-80UsohrKf_hPCvL-56" value="&lt;font style=&quot;font-size:11px;font-family:Helvetica;color:#000000;direction:ltr;letter-spacing:0px;line-height:120%;opacity:1&quot;&gt;(self.open_browser_info_file|self.file_to_run)&amp;amp;!self.sock?&lt;/font&gt;" style="verticalAlign=middle;align=center;vsdxID=103;fillColor=none;gradientColor=none;shape=stencil(nZBLDoQgEERP03uk4wnUuYeJKB0RDDKj3l5Ix/iJcTG7KnhVSRdgMel6VCDFFLzr1UxN0IAlSElWK08hKsAKsGidV513X9uwH+tEJjW4X2pYOJeLFJFiZcvuw6QheyIzcUXzF/bWukcf2b9bL2QUx4ktGcMLnf/vk8QnnhOrDQ==);strokeColor=#000000;spacingTop=-3;spacingBottom=-3;spacingLeft=-3;spacingRight=-3;labelBackgroundColor=none;rounded=0;html=1;whiteSpace=wrap;" vertex="1" parent="1">
          <mxGeometry x="684" y="2394" width="425" height="50" as="geometry" />
        </mxCell>
        <mxCell id="0qjY-80UsohrKf_hPCvL-57" value="&lt;font style=&quot;font-size:11px;font-family:Helvetica;color:#000000;direction:ltr;letter-spacing:0px;line-height:120%;opacity:1&quot;&gt;launch_browser&lt;/font&gt;" style="verticalAlign=middle;align=center;vsdxID=104;fillColor=none;gradientColor=none;shape=stencil(nZBRDoQgDERP03+WHsHFe5iISyOCQdT19kIaIxq//Jtp3zTpAFaTaUYNUkwx+F6v1EYD+AUpyRkdKCYFqACrzgf9C352LfuxyWRWg1/yhT/nRE5IsZWuZtCSK8CPeI0e/hF+jV7AJM4PO7KWCyr390bSiNtEtQM=);strokeColor=#000000;spacingTop=-3;spacingBottom=-3;spacingLeft=-3;spacingRight=-3;labelBackgroundColor=none;rounded=0;html=1;whiteSpace=wrap;" vertex="1" parent="1">
          <mxGeometry x="1124" y="2471" width="120" height="20" as="geometry" />
        </mxCell>
        <mxCell id="0qjY-80UsohrKf_hPCvL-58" value="&lt;font style=&quot;font-size:11px;font-family:Helvetica;color:#000000;direction:ltr;letter-spacing:0px;line-height:120%;opacity:1&quot;&gt;self.&lt;/font&gt;&lt;font style=&quot;font-size:11px;font-family:Helvetica;color:#ccff99;direction:ltr;letter-spacing:0px;line-height:120%;opacity:1&quot;&gt;token &lt;/font&gt;&lt;font style=&quot;font-size:11px;font-family:Helvetica;color:#000000;direction:ltr;letter-spacing:0px;line-height:120%;opacity:1&quot;&gt;&amp;amp; self._tokene_generated?&lt;/font&gt;" style="verticalAlign=middle;align=center;vsdxID=111;fillColor=none;gradientColor=none;shape=stencil(nZBLDoQgEERP03uk4wnUuYeJKB0RDDKj3l5Ix/iJcTG7KnhVSRdgMel6VCDFFLzr1UxN0IAlSElWK08hKsAKsGidV513X9uwH+tEJjW4X2pYOJeLFJFiZcvuw6QheyIzcUXzF/bWukcf2b9bL2QUx4ktGcMLnf/vk8QnnhOrDQ==);strokeColor=#000000;spacingTop=-3;spacingBottom=-3;spacingLeft=-3;spacingRight=-3;labelBackgroundColor=none;rounded=0;html=1;whiteSpace=wrap;" vertex="1" parent="1">
          <mxGeometry x="801" y="2504" width="190" height="80" as="geometry" />
        </mxCell>
        <mxCell id="0qjY-80UsohrKf_hPCvL-59" value="&lt;font style=&quot;font-size:11px;font-family:Helvetica;color:#000000;direction:ltr;letter-spacing:0px;line-height:120%;opacity:1&quot;&gt;log full URL with generated token&lt;/font&gt;" style="verticalAlign=middle;align=center;vsdxID=114;fillColor=none;gradientColor=none;shape=stencil(nZBRDoQgDERP03+WHsHFe5iISyOCQdT19kIaIxq//Jtp3zTpAFaTaUYNUkwx+F6v1EYD+AUpyRkdKCYFqACrzgf9C352LfuxyWRWg1/yhT/nRE5IsZWuZtCSK8CPeI0e/hF+jV7AJM4PO7KWCyr390bSiNtEtQM=);strokeColor=#000000;spacingTop=-3;spacingBottom=-3;spacingLeft=-3;spacingRight=-3;labelBackgroundColor=none;rounded=0;html=1;whiteSpace=wrap;" vertex="1" parent="1">
          <mxGeometry x="836" y="2614" width="120" height="60" as="geometry" />
        </mxCell>
        <mxCell id="0qjY-80UsohrKf_hPCvL-60" value="&lt;font style=&quot;font-size:11px;font-family:Helvetica;color:#000000;direction:ltr;letter-spacing:0px;line-height:120%;opacity:1&quot;&gt;实例化ioloop&lt;/font&gt;" style="verticalAlign=middle;align=center;vsdxID=116;fillColor=none;gradientColor=none;shape=stencil(nZBRDoQgDERP03+WHsHFe5iISyOCQdT19kIaIxq//Jtp3zTpAFaTaUYNUkwx+F6v1EYD+AUpyRkdKCYFqACrzgf9C352LfuxyWRWg1/yhT/nRE5IsZWuZtCSK8CPeI0e/hF+jV7AJM4PO7KWCyr390bSiNtEtQM=);strokeColor=#000000;spacingTop=-3;spacingBottom=-3;spacingLeft=-3;spacingRight=-3;labelBackgroundColor=none;rounded=0;html=1;whiteSpace=wrap;" vertex="1" parent="1">
          <mxGeometry x="836" y="2704" width="120" height="30" as="geometry" />
        </mxCell>
        <mxCell id="0qjY-80UsohrKf_hPCvL-61" value="&lt;font style=&quot;font-size:11px;font-family:Helvetica;color:#000000;direction:ltr;letter-spacing:0px;line-height:120%;opacity:1&quot;&gt;system is win?&lt;/font&gt;" style="verticalAlign=middle;align=center;vsdxID=117;fillColor=none;gradientColor=none;shape=stencil(nZBLDoQgEERP03uk4wnUuYeJKB0RDDKj3l5Ix/iJcTG7KnhVSRdgMel6VCDFFLzr1UxN0IAlSElWK08hKsAKsGidV513X9uwH+tEJjW4X2pYOJeLFJFiZcvuw6QheyIzcUXzF/bWukcf2b9bL2QUx4ktGcMLnf/vk8QnnhOrDQ==);strokeColor=#000000;spacingTop=-3;spacingBottom=-3;spacingLeft=-3;spacingRight=-3;labelBackgroundColor=none;rounded=0;html=1;whiteSpace=wrap;" vertex="1" parent="1">
          <mxGeometry x="843" y="2764" width="107" height="50" as="geometry" />
        </mxCell>
        <mxCell id="0qjY-80UsohrKf_hPCvL-62" value="&lt;font style=&quot;font-size:11px;font-family:Helvetica;color:#000000;direction:ltr;letter-spacing:0px;line-height:120%;opacity:1&quot;&gt;start a ioloop.PeriodicCallback() to handle signals that might be ignored by the inner loop&lt;/font&gt;" style="verticalAlign=middle;align=center;vsdxID=118;fillColor=none;gradientColor=none;shape=stencil(nZBRDoQgDERP03+WHsHFe5iISyOCQdT19kIaIxq//Jtp3zTpAFaTaUYNUkwx+F6v1EYD+AUpyRkdKCYFqACrzgf9C352LfuxyWRWg1/yhT/nRE5IsZWuZtCSK8CPeI0e/hF+jV7AJM4PO7KWCyr390bSiNtEtQM=);strokeColor=#000000;spacingTop=-3;spacingBottom=-3;spacingLeft=-3;spacingRight=-3;labelBackgroundColor=none;rounded=0;html=1;whiteSpace=wrap;" vertex="1" parent="1">
          <mxGeometry x="811" y="2844" width="170" height="60" as="geometry" />
        </mxCell>
        <mxCell id="0qjY-80UsohrKf_hPCvL-63" value="&lt;font style=&quot;font-size:11px;font-family:Helvetica;color:#000000;direction:ltr;letter-spacing:0px;line-height:120%;opacity:1&quot;&gt;ioloop&lt;/font&gt;" style="verticalAlign=middle;align=center;vsdxID=119;fillColor=none;gradientColor=none;shape=stencil(nZBRDoQgDERP03+WHsHFe5iISyOCQdT19kIaIxq//Jtp3zTpAFaTaUYNUkwx+F6v1EYD+AUpyRkdKCYFqACrzgf9C352LfuxyWRWg1/yhT/nRE5IsZWuZtCSK8CPeI0e/hF+jV7AJM4PO7KWCyr390bSiNtEtQM=);strokeColor=#000000;spacingTop=-3;spacingBottom=-3;spacingLeft=-3;spacingRight=-3;labelBackgroundColor=none;rounded=0;html=1;whiteSpace=wrap;" vertex="1" parent="1">
          <mxGeometry x="836" y="3054" width="120" height="30" as="geometry" />
        </mxCell>
        <mxCell id="0qjY-80UsohrKf_hPCvL-64" value="&lt;font style=&quot;font-size:11px;font-family:Helvetica;color:#000000;direction:ltr;letter-spacing:0px;line-height:120%;opacity:1&quot;&gt;stop() called &amp;amp; current event iteration completes?&lt;/font&gt;" style="verticalAlign=middle;align=center;vsdxID=123;fillColor=none;gradientColor=none;shape=stencil(nZBLDoQgEERP03uk4wnUuYeJKB0RDDKj3l5Ix/iJcTG7KnhVSRdgMel6VCDFFLzr1UxN0IAlSElWK08hKsAKsGidV513X9uwH+tEJjW4X2pYOJeLFJFiZcvuw6QheyIzcUXzF/bWukcf2b9bL2QUx4ktGcMLnf/vk8QnnhOrDQ==);strokeColor=#000000;spacingTop=-3;spacingBottom=-3;spacingLeft=-3;spacingRight=-3;labelBackgroundColor=none;rounded=0;html=1;whiteSpace=wrap;" vertex="1" parent="1">
          <mxGeometry x="806" y="3134" width="181" height="80" as="geometry" />
        </mxCell>
        <mxCell id="0qjY-80UsohrKf_hPCvL-65" value="&lt;font style=&quot;font-size:11px;font-family:Helvetica;color:#000000;direction:ltr;letter-spacing:0px;line-height:120%;opacity:1&quot;&gt;remove_server_info_file()&lt;br/&gt;&lt;/font&gt;&lt;font style=&quot;font-size:11px;font-family:Helvetica;color:#000000;direction:ltr;letter-spacing:0px;line-height:120%;opacity:1&quot;&gt;remove_browser_open_file()&lt;br/&gt;&lt;/font&gt;&lt;font style=&quot;font-size:11px;font-family:Helvetica;color:#000000;direction:ltr;letter-spacing:0px;line-height:120%;opacity:1&quot;&gt;cleanup_kernels()&lt;br/&gt;&lt;/font&gt;&lt;font style=&quot;font-size:11px;font-family:Helvetica;color:#000000;direction:ltr;letter-spacing:0px;line-height:120%;opacity:1&quot;&gt;cleanup_terminals()&lt;/font&gt;" style="verticalAlign=middle;align=center;vsdxID=124;fillColor=none;gradientColor=none;shape=stencil(nZBRDoQgDERP03+WHsHFe5iISyOCQdT19kIaIxq//Jtp3zTpAFaTaUYNUkwx+F6v1EYD+AUpyRkdKCYFqACrzgf9C352LfuxyWRWg1/yhT/nRE5IsZWuZtCSK8CPeI0e/hF+jV7AJM4PO7KWCyr390bSiNtEtQM=);strokeColor=#000000;spacingTop=-3;spacingBottom=-3;spacingLeft=-3;spacingRight=-3;labelBackgroundColor=none;rounded=0;html=1;whiteSpace=wrap;" vertex="1" parent="1">
          <mxGeometry x="806" y="3254" width="180" height="60" as="geometry" />
        </mxCell>
        <mxCell id="0qjY-80UsohrKf_hPCvL-66" value="&lt;font style=&quot;font-size:11px;font-family:Helvetica;color:#000000;direction:ltr;letter-spacing:0px;line-height:120%;opacity:1&quot;&gt;start ioloop&lt;/font&gt;" style="verticalAlign=middle;align=center;vsdxID=127;fillColor=none;gradientColor=none;shape=stencil(nZBRDoQgDERP03+WHsHFe5iISyOCQdT19kIaIxq//Jtp3zTpAFaTaUYNUkwx+F6v1EYD+AUpyRkdKCYFqACrzgf9C352LfuxyWRWg1/yhT/nRE5IsZWuZtCSK8CPeI0e/hF+jV7AJM4PO7KWCyr390bSiNtEtQM=);strokeColor=#000000;spacingTop=-3;spacingBottom=-3;spacingLeft=-3;spacingRight=-3;labelBackgroundColor=none;rounded=0;html=1;whiteSpace=wrap;" vertex="1" parent="1">
          <mxGeometry x="836" y="2944" width="120" height="60" as="geometry" />
        </mxCell>
        <mxCell id="0qjY-80UsohrKf_hPCvL-67" style="vsdxID=131;fillColor=none;gradientColor=none;shape=stencil(nZBRDoQgDERP03+WHsHFe5iISyOCQdT19kIaIxq//Jtp3zTpAFaTaUYNUkwx+F6v1EYD+AUpyRkdKCYFqACrzgf9C352LfuxyWRWg1/yhT/nRE5IsZWuZtCSK8CPeI0e/hF+jV7AJM4PO7KWCyr390bSiNtEtQM=);dashed=1;dashPattern=4.00 2.00;strokeColor=#000000;spacingTop=-3;spacingBottom=-3;spacingLeft=-3;spacingRight=-3;labelBackgroundColor=none;rounded=0;html=1;whiteSpace=wrap;" vertex="1" parent="1">
          <mxGeometry x="564" y="1319" width="780" height="2070" as="geometry" />
        </mxCell>
        <mxCell id="0qjY-80UsohrKf_hPCvL-68" value="&lt;font style=&quot;font-size:11px;font-family:Helvetica;color:#000000;direction:ltr;letter-spacing:0px;line-height:120%;opacity:1&quot;&gt;JupyterApp&lt;/font&gt;" style="verticalAlign=middle;align=center;vsdxID=134;fillColor=none;gradientColor=none;shape=stencil(nZBRDoQgDERP03+WHsHFe5iISyOCQdT19kIaIxq//Jtp3zTpAFaTaUYNUkwx+F6v1EYD+AUpyRkdKCYFqACrzgf9C352LfuxyWRWg1/yhT/nRE5IsZWuZtCSK8CPeI0e/hF+jV7AJM4PO7KWCyr390bSiNtEtQM=);dashed=1;dashPattern=4.00 2.00;strokeColor=#000000;spacingTop=-3;spacingBottom=-3;spacingLeft=-3;spacingRight=-3;labelBackgroundColor=none;rounded=0;html=1;whiteSpace=wrap;" vertex="1" parent="1">
          <mxGeometry x="634" y="1354" width="40" height="20" as="geometry" />
        </mxCell>
        <mxCell id="0qjY-80UsohrKf_hPCvL-69" style="vsdxID=2;edgeStyle=none;startArrow=none;endArrow=classic;startSize=5;endSize=5;strokeColor=#000000;spacingTop=0;spacingBottom=0;spacingLeft=0;spacingRight=0;verticalAlign=middle;html=1;labelBackgroundColor=#ffffff;rounded=0;exitX=0.5;exitY=1;exitDx=0;exitDy=0;exitPerimeter=0;entryX=0.5;entryY=0;entryDx=0;entryDy=0;entryPerimeter=0;" edge="1" parent="1" source="0qjY-80UsohrKf_hPCvL-2" target="0qjY-80UsohrKf_hPCvL-3">
          <mxGeometry relative="1" as="geometry">
            <mxPoint y="116" as="offset" />
            <Array as="points">
              <mxPoint x="1594" y="1449.14" />
              <mxPoint x="1594" y="1439.14" />
            </Array>
          </mxGeometry>
        </mxCell>
        <mxCell id="0qjY-80UsohrKf_hPCvL-70" style="vsdxID=5;edgeStyle=none;startArrow=none;endArrow=classic;startSize=5;endSize=5;strokeColor=#000000;spacingTop=0;spacingBottom=0;spacingLeft=0;spacingRight=0;verticalAlign=middle;html=1;labelBackgroundColor=#ffffff;rounded=0;exitX=0.5;exitY=1;exitDx=0;exitDy=0;exitPerimeter=0;entryX=0.5;entryY=0;entryDx=0;entryDy=0;entryPerimeter=0;" edge="1" parent="1" source="0qjY-80UsohrKf_hPCvL-3" target="0qjY-80UsohrKf_hPCvL-4">
          <mxGeometry relative="1" as="geometry">
            <mxPoint y="116" as="offset" />
            <Array as="points">
              <mxPoint x="1594" y="1539.14" />
              <mxPoint x="1594" y="1529.14" />
            </Array>
          </mxGeometry>
        </mxCell>
        <mxCell id="0qjY-80UsohrKf_hPCvL-71" style="vsdxID=7;edgeStyle=none;startArrow=none;endArrow=classic;startSize=5;endSize=5;strokeColor=#000000;spacingTop=0;spacingBottom=0;spacingLeft=0;spacingRight=0;verticalAlign=middle;html=1;labelBackgroundColor=#ffffff;rounded=0;exitX=0.5;exitY=1;exitDx=0;exitDy=0;exitPerimeter=0;entryX=0.5;entryY=0;entryDx=0;entryDy=0;entryPerimeter=0;" edge="1" parent="1" source="0qjY-80UsohrKf_hPCvL-1" target="0qjY-80UsohrKf_hPCvL-2">
          <mxGeometry relative="1" as="geometry">
            <mxPoint y="121" as="offset" />
            <Array as="points" />
          </mxGeometry>
        </mxCell>
        <mxCell id="0qjY-80UsohrKf_hPCvL-72" style="vsdxID=9;edgeStyle=none;startArrow=none;endArrow=classic;startSize=5;endSize=5;strokeColor=#000000;spacingTop=0;spacingBottom=0;spacingLeft=0;spacingRight=0;verticalAlign=middle;html=1;labelBackgroundColor=#ffffff;rounded=0;exitX=0.5;exitY=1;exitDx=0;exitDy=0;exitPerimeter=0;entryX=0.5;entryY=0;entryDx=0;entryDy=0;entryPerimeter=0;" edge="1" parent="1" source="0qjY-80UsohrKf_hPCvL-5" target="0qjY-80UsohrKf_hPCvL-6">
          <mxGeometry relative="1" as="geometry">
            <mxPoint y="121" as="offset" />
            <Array as="points" />
          </mxGeometry>
        </mxCell>
        <mxCell id="0qjY-80UsohrKf_hPCvL-73" style="vsdxID=11;edgeStyle=none;startArrow=none;endArrow=classic;startSize=5;endSize=5;strokeColor=#000000;spacingTop=0;spacingBottom=0;spacingLeft=0;spacingRight=0;verticalAlign=middle;html=1;labelBackgroundColor=#ffffff;rounded=0;exitX=0.5;exitY=1;exitDx=0;exitDy=0;exitPerimeter=0;entryX=0.5;entryY=0;entryDx=0;entryDy=0;entryPerimeter=0;" edge="1" parent="1" source="0qjY-80UsohrKf_hPCvL-6" target="0qjY-80UsohrKf_hPCvL-7">
          <mxGeometry relative="1" as="geometry">
            <mxPoint y="116" as="offset" />
            <Array as="points">
              <mxPoint x="2004" y="1409.14" />
              <mxPoint x="2004" y="1399.14" />
            </Array>
          </mxGeometry>
        </mxCell>
        <mxCell id="0qjY-80UsohrKf_hPCvL-74" style="vsdxID=13;edgeStyle=none;startArrow=none;endArrow=classic;startSize=5;endSize=5;strokeColor=#000000;spacingTop=0;spacingBottom=0;spacingLeft=0;spacingRight=0;verticalAlign=middle;html=1;labelBackgroundColor=#ffffff;rounded=0;exitX=0.5;exitY=1;exitDx=0;exitDy=0;exitPerimeter=0;entryX=0.5;entryY=0;entryDx=0;entryDy=0;entryPerimeter=0;" edge="1" parent="1" source="0qjY-80UsohrKf_hPCvL-7" target="0qjY-80UsohrKf_hPCvL-8">
          <mxGeometry relative="1" as="geometry">
            <mxPoint y="116" as="offset" />
            <Array as="points">
              <mxPoint x="2004" y="1499.14" />
              <mxPoint x="2004" y="1489.14" />
            </Array>
          </mxGeometry>
        </mxCell>
        <mxCell id="0qjY-80UsohrKf_hPCvL-75" style="vsdxID=15;edgeStyle=none;startArrow=none;endArrow=classic;startSize=5;endSize=5;strokeColor=#000000;spacingTop=0;spacingBottom=0;spacingLeft=0;spacingRight=0;verticalAlign=middle;html=1;labelBackgroundColor=#ffffff;rounded=0;exitX=0.5;exitY=1;exitDx=0;exitDy=0;exitPerimeter=0;entryX=0.5;entryY=0;entryDx=0;entryDy=0;entryPerimeter=0;" edge="1" parent="1" source="0qjY-80UsohrKf_hPCvL-8" target="0qjY-80UsohrKf_hPCvL-27">
          <mxGeometry relative="1" as="geometry">
            <mxPoint y="126" as="offset" />
            <Array as="points" />
          </mxGeometry>
        </mxCell>
        <mxCell id="0qjY-80UsohrKf_hPCvL-76" style="vsdxID=17;edgeStyle=none;startArrow=none;endArrow=classic;startSize=5;endSize=5;strokeColor=#000000;spacingTop=0;spacingBottom=0;spacingLeft=0;spacingRight=0;verticalAlign=middle;html=1;labelBackgroundColor=#ffffff;rounded=0;exitX=0.5;exitY=1;exitDx=0;exitDy=0;exitPerimeter=0;entryX=0.5;entryY=0;entryDx=0;entryDy=0;entryPerimeter=0;" edge="1" parent="1" source="0qjY-80UsohrKf_hPCvL-9" target="0qjY-80UsohrKf_hPCvL-10">
          <mxGeometry relative="1" as="geometry">
            <mxPoint y="116" as="offset" />
            <Array as="points">
              <mxPoint x="2004" y="1809.14" />
              <mxPoint x="2004" y="1799.14" />
            </Array>
          </mxGeometry>
        </mxCell>
        <mxCell id="0qjY-80UsohrKf_hPCvL-77" style="vsdxID=20;edgeStyle=none;startArrow=none;endArrow=classic;startSize=5;endSize=5;strokeColor=#000000;spacingTop=0;spacingBottom=0;spacingLeft=0;spacingRight=0;verticalAlign=middle;html=1;labelBackgroundColor=#ffffff;rounded=0;exitX=0.5;exitY=1;exitDx=0;exitDy=0;exitPerimeter=0;entryX=0.5;entryY=0;entryDx=0;entryDy=0;entryPerimeter=0;" edge="1" parent="1" source="0qjY-80UsohrKf_hPCvL-10" target="0qjY-80UsohrKf_hPCvL-11">
          <mxGeometry relative="1" as="geometry">
            <mxPoint y="121" as="offset" />
            <Array as="points" />
          </mxGeometry>
        </mxCell>
        <mxCell id="0qjY-80UsohrKf_hPCvL-78" style="vsdxID=22;edgeStyle=none;startArrow=none;endArrow=classic;startSize=5;endSize=5;strokeColor=#000000;spacingTop=0;spacingBottom=0;spacingLeft=0;spacingRight=0;verticalAlign=middle;html=1;labelBackgroundColor=#ffffff;rounded=0;exitX=0.5;exitY=1;exitDx=0;exitDy=0;exitPerimeter=0;entryX=0.5;entryY=0;entryDx=0;entryDy=0;entryPerimeter=0;" edge="1" parent="1" source="0qjY-80UsohrKf_hPCvL-11" target="0qjY-80UsohrKf_hPCvL-12">
          <mxGeometry relative="1" as="geometry">
            <mxPoint y="121" as="offset" />
            <Array as="points" />
          </mxGeometry>
        </mxCell>
        <mxCell id="0qjY-80UsohrKf_hPCvL-79" style="vsdxID=24;edgeStyle=none;startArrow=none;endArrow=classic;startSize=5;endSize=5;strokeColor=#000000;spacingTop=0;spacingBottom=0;spacingLeft=0;spacingRight=0;verticalAlign=middle;html=1;labelBackgroundColor=#ffffff;rounded=0;exitX=0.5;exitY=1;exitDx=0;exitDy=0;exitPerimeter=0;entryX=0.5;entryY=0;entryDx=0;entryDy=0;entryPerimeter=0;" edge="1" parent="1" source="0qjY-80UsohrKf_hPCvL-12" target="0qjY-80UsohrKf_hPCvL-13">
          <mxGeometry relative="1" as="geometry">
            <mxPoint y="116" as="offset" />
            <Array as="points">
              <mxPoint x="2004" y="2089.14" />
              <mxPoint x="2004" y="2079.14" />
            </Array>
          </mxGeometry>
        </mxCell>
        <mxCell id="0qjY-80UsohrKf_hPCvL-80" style="vsdxID=26;edgeStyle=none;startArrow=none;endArrow=classic;startSize=7;endSize=7;strokeColor=#000000;spacingTop=0;spacingBottom=0;spacingLeft=0;spacingRight=0;verticalAlign=middle;html=1;labelBackgroundColor=#ffffff;rounded=0;exitX=0.5;exitY=1;exitDx=0;exitDy=0;exitPerimeter=0;entryX=0.5019607843137255;entryY=0;entryDx=0;entryDy=0;entryPerimeter=0;" edge="1" parent="1" source="0qjY-80UsohrKf_hPCvL-13" target="0qjY-80UsohrKf_hPCvL-20">
          <mxGeometry relative="1" as="geometry">
            <mxPoint y="121" as="offset" />
            <Array as="points" />
          </mxGeometry>
        </mxCell>
        <mxCell id="0qjY-80UsohrKf_hPCvL-81" style="vsdxID=28;edgeStyle=none;startArrow=none;endArrow=classic;startSize=5;endSize=5;strokeColor=#000000;spacingTop=0;spacingBottom=0;spacingLeft=0;spacingRight=0;verticalAlign=middle;html=1;labelBackgroundColor=#ffffff;rounded=0;exitX=0.5;exitY=1;exitDx=0;exitDy=0;exitPerimeter=0;entryX=0.5;entryY=0;entryDx=0;entryDy=0;entryPerimeter=0;" edge="1" parent="1" source="0qjY-80UsohrKf_hPCvL-14" target="0qjY-80UsohrKf_hPCvL-15">
          <mxGeometry relative="1" as="geometry">
            <mxPoint y="111" as="offset" />
            <Array as="points">
              <mxPoint x="2634" y="1999.14" />
              <mxPoint x="2634" y="1979.14" />
            </Array>
          </mxGeometry>
        </mxCell>
        <mxCell id="0qjY-80UsohrKf_hPCvL-82" value="&lt;font style=&quot;font-size:11px;font-family:Helvetica;color:#000000;direction:ltr;letter-spacing:0px;line-height:120%;opacity:1&quot;&gt;no&lt;/font&gt;" style="vsdxID=31;edgeStyle=none;startArrow=none;endArrow=classic;startSize=5;endSize=5;strokeColor=#000000;spacingTop=0;spacingBottom=0;spacingLeft=0;spacingRight=0;verticalAlign=middle;html=1;labelBackgroundColor=#ffffff;rounded=0;align=center;exitX=0.9928571428571429;exitY=0.5;exitDx=0;exitDy=0;exitPerimeter=0;entryX=0.5;entryY=0;entryDx=0;entryDy=0;entryPerimeter=0;" edge="1" parent="1" source="0qjY-80UsohrKf_hPCvL-15" target="0qjY-80UsohrKf_hPCvL-16">
          <mxGeometry relative="1" as="geometry">
            <mxPoint as="offset" />
            <Array as="points">
              <mxPoint x="2893.33" y="2029" />
            </Array>
          </mxGeometry>
        </mxCell>
        <mxCell id="0qjY-80UsohrKf_hPCvL-83" value="&lt;font style=&quot;font-size:11px;font-family:Helvetica;color:#000000;direction:ltr;letter-spacing:0px;line-height:120%;opacity:1&quot;&gt;yes&lt;/font&gt;" style="vsdxID=33;edgeStyle=none;startArrow=none;endArrow=classic;startSize=5;endSize=5;strokeColor=#000000;spacingTop=0;spacingBottom=0;spacingLeft=0;spacingRight=0;verticalAlign=middle;html=1;labelBackgroundColor=#ffffff;rounded=0;align=center;exitX=0.5;exitY=1;exitDx=0;exitDy=0;exitPerimeter=0;entryX=0.5;entryY=0;entryDx=0;entryDy=0;entryPerimeter=0;" edge="1" parent="1" source="0qjY-80UsohrKf_hPCvL-15" target="0qjY-80UsohrKf_hPCvL-32">
          <mxGeometry relative="1" as="geometry">
            <mxPoint y="1" as="offset" />
            <Array as="points">
              <mxPoint x="2634" y="2089.14" />
            </Array>
          </mxGeometry>
        </mxCell>
        <mxCell id="0qjY-80UsohrKf_hPCvL-84" style="vsdxID=35;edgeStyle=none;startArrow=none;endArrow=classic;startSize=5;endSize=5;strokeColor=#000000;spacingTop=0;spacingBottom=0;spacingLeft=0;spacingRight=0;verticalAlign=middle;html=1;labelBackgroundColor=#ffffff;rounded=0;exitX=0.5;exitY=1;exitDx=0;exitDy=0;exitPerimeter=0;entryX=0.5;entryY=0;entryDx=0;entryDy=0;entryPerimeter=0;" edge="1" parent="1" source="0qjY-80UsohrKf_hPCvL-17" target="0qjY-80UsohrKf_hPCvL-33">
          <mxGeometry relative="1" as="geometry">
            <mxPoint y="116" as="offset" />
            <Array as="points">
              <mxPoint x="2634" y="2319.14" />
              <mxPoint x="2634" y="2309.14" />
            </Array>
          </mxGeometry>
        </mxCell>
        <mxCell id="0qjY-80UsohrKf_hPCvL-85" style="vsdxID=38;edgeStyle=none;startArrow=none;endArrow=classic;startSize=7;endSize=7;strokeColor=#000000;spacingTop=0;spacingBottom=0;spacingLeft=0;spacingRight=0;verticalAlign=middle;html=1;labelBackgroundColor=#ffffff;rounded=0;exitX=0.5;exitY=1;exitDx=0;exitDy=0;exitPerimeter=0;entryX=0.5;entryY=0;entryDx=0;entryDy=0;entryPerimeter=0;" edge="1" parent="1" source="0qjY-80UsohrKf_hPCvL-18" target="0qjY-80UsohrKf_hPCvL-19">
          <mxGeometry relative="1" as="geometry">
            <mxPoint y="121" as="offset" />
            <Array as="points" />
          </mxGeometry>
        </mxCell>
        <mxCell id="0qjY-80UsohrKf_hPCvL-86" style="vsdxID=41;edgeStyle=none;startArrow=none;endArrow=classic;startSize=5;endSize=5;strokeColor=#000000;spacingTop=0;spacingBottom=0;spacingLeft=0;spacingRight=0;verticalAlign=middle;html=1;labelBackgroundColor=#ffffff;rounded=0;exitX=0.5;exitY=1;exitDx=0;exitDy=0;exitPerimeter=0;entryX=0.5;entryY=0;entryDx=0;entryDy=0;entryPerimeter=0;" edge="1" parent="1" source="0qjY-80UsohrKf_hPCvL-19" target="0qjY-80UsohrKf_hPCvL-37">
          <mxGeometry relative="1" as="geometry">
            <mxPoint y="126" as="offset" />
            <Array as="points" />
          </mxGeometry>
        </mxCell>
        <mxCell id="0qjY-80UsohrKf_hPCvL-87" style="vsdxID=43;edgeStyle=none;startArrow=none;endArrow=classic;startSize=7;endSize=7;strokeColor=#000000;spacingTop=0;spacingBottom=0;spacingLeft=0;spacingRight=0;verticalAlign=middle;html=1;labelBackgroundColor=#ffffff;rounded=0;exitX=0.5019607843137255;exitY=1;exitDx=0;exitDy=0;exitPerimeter=0;entryX=0.5;entryY=0;entryDx=0;entryDy=0;entryPerimeter=0;" edge="1" parent="1" source="0qjY-80UsohrKf_hPCvL-20" target="0qjY-80UsohrKf_hPCvL-21">
          <mxGeometry relative="1" as="geometry">
            <mxPoint y="111" as="offset" />
            <Array as="points">
              <mxPoint x="2004" y="2279.14" />
              <mxPoint x="2004" y="2259.14" />
            </Array>
          </mxGeometry>
        </mxCell>
        <mxCell id="0qjY-80UsohrKf_hPCvL-88" style="vsdxID=45;edgeStyle=none;startArrow=none;endArrow=classic;startSize=5;endSize=5;strokeColor=#000000;spacingTop=0;spacingBottom=0;spacingLeft=0;spacingRight=0;verticalAlign=middle;html=1;labelBackgroundColor=#ffffff;rounded=0;exitX=0.5;exitY=1;exitDx=0;exitDy=0;exitPerimeter=0;entryX=0.5;entryY=0;entryDx=0;entryDy=0;entryPerimeter=0;" edge="1" parent="1" source="0qjY-80UsohrKf_hPCvL-21" target="0qjY-80UsohrKf_hPCvL-22">
          <mxGeometry relative="1" as="geometry">
            <mxPoint y="111" as="offset" />
            <Array as="points">
              <mxPoint x="2004" y="2359.14" />
              <mxPoint x="2004" y="2339.14" />
            </Array>
          </mxGeometry>
        </mxCell>
        <mxCell id="0qjY-80UsohrKf_hPCvL-89" style="vsdxID=47;edgeStyle=none;startArrow=none;endArrow=classic;startSize=5;endSize=5;strokeColor=#000000;spacingTop=0;spacingBottom=0;spacingLeft=0;spacingRight=0;verticalAlign=middle;html=1;labelBackgroundColor=#ffffff;rounded=0;exitX=0.5;exitY=1;exitDx=0;exitDy=0;exitPerimeter=0;entryX=0.5;entryY=0;entryDx=0;entryDy=0;entryPerimeter=0;" edge="1" parent="1" source="0qjY-80UsohrKf_hPCvL-22" target="0qjY-80UsohrKf_hPCvL-23">
          <mxGeometry relative="1" as="geometry">
            <mxPoint y="116" as="offset" />
            <Array as="points">
              <mxPoint x="2004" y="2439.14" />
              <mxPoint x="2004" y="2429.14" />
            </Array>
          </mxGeometry>
        </mxCell>
        <mxCell id="0qjY-80UsohrKf_hPCvL-90" style="vsdxID=49;edgeStyle=none;startArrow=none;endArrow=classic;startSize=5;endSize=5;strokeColor=#000000;spacingTop=0;spacingBottom=0;spacingLeft=0;spacingRight=0;verticalAlign=middle;html=1;labelBackgroundColor=#ffffff;rounded=0;exitX=0.5;exitY=1;exitDx=0;exitDy=0;exitPerimeter=0;entryX=0.5;entryY=0;entryDx=0;entryDy=0;entryPerimeter=0;" edge="1" parent="1" source="0qjY-80UsohrKf_hPCvL-23" target="0qjY-80UsohrKf_hPCvL-24">
          <mxGeometry relative="1" as="geometry">
            <mxPoint y="117" as="offset" />
            <Array as="points">
              <mxPoint x="2004" y="2529.14" />
              <mxPoint x="2004" y="2521.43" />
            </Array>
          </mxGeometry>
        </mxCell>
        <mxCell id="0qjY-80UsohrKf_hPCvL-91" style="vsdxID=51;edgeStyle=none;startArrow=none;endArrow=classic;startSize=5;endSize=5;strokeColor=#000000;spacingTop=0;spacingBottom=0;spacingLeft=0;spacingRight=0;verticalAlign=middle;html=1;labelBackgroundColor=#ffffff;rounded=0;exitX=0.5;exitY=1;exitDx=0;exitDy=0;exitPerimeter=0;entryX=0.5;entryY=0;entryDx=0;entryDy=0;entryPerimeter=0;" edge="1" parent="1" source="0qjY-80UsohrKf_hPCvL-24" target="0qjY-80UsohrKf_hPCvL-26">
          <mxGeometry relative="1" as="geometry">
            <mxPoint y="115" as="offset" />
            <Array as="points" />
          </mxGeometry>
        </mxCell>
        <mxCell id="0qjY-80UsohrKf_hPCvL-92" style="vsdxID=54;edgeStyle=none;startArrow=none;endArrow=classic;startSize=5;endSize=5;strokeColor=#000000;spacingTop=0;spacingBottom=0;spacingLeft=0;spacingRight=0;verticalAlign=middle;html=1;labelBackgroundColor=#ffffff;rounded=0;exitX=0.5;exitY=1;exitDx=0;exitDy=0;exitPerimeter=0;entryX=0.5;entryY=0;entryDx=0;entryDy=0;entryPerimeter=0;" edge="1" parent="1" source="0qjY-80UsohrKf_hPCvL-27" target="0qjY-80UsohrKf_hPCvL-9">
          <mxGeometry relative="1" as="geometry">
            <mxPoint y="131" as="offset" />
            <Array as="points" />
          </mxGeometry>
        </mxCell>
        <mxCell id="0qjY-80UsohrKf_hPCvL-93" style="vsdxID=55;edgeStyle=none;startArrow=none;endArrow=classic;startSize=5;endSize=5;strokeColor=#000000;spacingTop=0;spacingBottom=0;spacingLeft=0;spacingRight=0;verticalAlign=middle;html=1;labelBackgroundColor=#ffffff;rounded=0;exitX=0.9923076923076923;exitY=0.5;exitDx=0;exitDy=0;exitPerimeter=0;entryX=0.5;entryY=0;entryDx=0;entryDy=0;entryPerimeter=0;" edge="1" parent="1" source="0qjY-80UsohrKf_hPCvL-27" target="0qjY-80UsohrKf_hPCvL-28">
          <mxGeometry relative="1" as="geometry">
            <mxPoint x="-93" y="191" as="offset" />
            <Array as="points">
              <mxPoint x="2163.31" y="1639" />
            </Array>
          </mxGeometry>
        </mxCell>
        <mxCell id="0qjY-80UsohrKf_hPCvL-94" style="vsdxID=59;edgeStyle=none;startArrow=none;endArrow=classic;startSize=5;endSize=5;strokeColor=#000000;spacingTop=0;spacingBottom=0;spacingLeft=0;spacingRight=0;verticalAlign=middle;html=1;labelBackgroundColor=#ffffff;rounded=0;exitX=0.5;exitY=1;exitDx=0;exitDy=0;exitPerimeter=0;entryX=0.5;entryY=0;entryDx=0;entryDy=0;entryPerimeter=0;" edge="1" parent="1" source="0qjY-80UsohrKf_hPCvL-31" target="0qjY-80UsohrKf_hPCvL-14">
          <mxGeometry relative="1" as="geometry">
            <mxPoint y="126" as="offset" />
            <Array as="points" />
          </mxGeometry>
        </mxCell>
        <mxCell id="0qjY-80UsohrKf_hPCvL-95" value="&lt;font style=&quot;font-size:11px;font-family:Helvetica;color:#000000;direction:ltr;letter-spacing:0px;line-height:120%;opacity:1&quot;&gt;yes&lt;/font&gt;" style="vsdxID=61;edgeStyle=none;startArrow=none;endArrow=classic;startSize=5;endSize=5;strokeColor=#000000;spacingTop=0;spacingBottom=0;spacingLeft=0;spacingRight=0;verticalAlign=middle;html=1;labelBackgroundColor=#ffffff;rounded=0;align=center;exitX=0.9941176470588236;exitY=0.5;exitDx=0;exitDy=0;exitPerimeter=0;entryX=0.5;entryY=0;entryDx=0;entryDy=0;entryPerimeter=0;" edge="1" parent="1" source="0qjY-80UsohrKf_hPCvL-32" target="0qjY-80UsohrKf_hPCvL-16">
          <mxGeometry relative="1" as="geometry">
            <mxPoint as="offset" />
            <Array as="points">
              <mxPoint x="2893.3" y="2159" />
            </Array>
          </mxGeometry>
        </mxCell>
        <mxCell id="0qjY-80UsohrKf_hPCvL-96" style="vsdxID=62;edgeStyle=none;startArrow=none;endArrow=classic;startSize=5;endSize=5;strokeColor=#000000;spacingTop=0;spacingBottom=0;spacingLeft=0;spacingRight=0;verticalAlign=middle;html=1;labelBackgroundColor=#ffffff;rounded=0;exitX=0.5;exitY=1;exitDx=0;exitDy=0;exitPerimeter=0;entryX=0.5;entryY=0;entryDx=0;entryDy=0;entryPerimeter=0;" edge="1" parent="1" source="0qjY-80UsohrKf_hPCvL-32" target="0qjY-80UsohrKf_hPCvL-17">
          <mxGeometry relative="1" as="geometry">
            <mxPoint y="131" as="offset" />
            <Array as="points" />
          </mxGeometry>
        </mxCell>
        <mxCell id="0qjY-80UsohrKf_hPCvL-97" style="vsdxID=63;edgeStyle=none;startArrow=none;endArrow=classic;startSize=5;endSize=5;strokeColor=#000000;spacingTop=0;spacingBottom=0;spacingLeft=0;spacingRight=0;verticalAlign=middle;html=1;labelBackgroundColor=#ffffff;rounded=0;exitX=0.5;exitY=1;exitDx=0;exitDy=0;exitPerimeter=0;entryX=0.5;entryY=0;entryDx=0;entryDy=0;entryPerimeter=0;" edge="1" parent="1" source="0qjY-80UsohrKf_hPCvL-33" target="0qjY-80UsohrKf_hPCvL-35">
          <mxGeometry relative="1" as="geometry">
            <mxPoint y="111" as="offset" />
            <Array as="points">
              <mxPoint x="2634" y="2379.14" />
              <mxPoint x="2634" y="2359.14" />
            </Array>
          </mxGeometry>
        </mxCell>
        <mxCell id="0qjY-80UsohrKf_hPCvL-98" style="vsdxID=65;edgeStyle=none;startArrow=none;endArrow=classic;startSize=5;endSize=5;strokeColor=#000000;spacingTop=0;spacingBottom=0;spacingLeft=0;spacingRight=0;verticalAlign=middle;html=1;labelBackgroundColor=#ffffff;rounded=0;exitX=0.5;exitY=1;exitDx=0;exitDy=0;exitPerimeter=0;entryX=0.5;entryY=0;entryDx=0;entryDy=0;entryPerimeter=0;" edge="1" parent="1" source="0qjY-80UsohrKf_hPCvL-35" target="0qjY-80UsohrKf_hPCvL-18">
          <mxGeometry relative="1" as="geometry">
            <mxPoint y="121" as="offset" />
            <Array as="points" />
          </mxGeometry>
        </mxCell>
        <mxCell id="0qjY-80UsohrKf_hPCvL-99" style="vsdxID=68;edgeStyle=none;startArrow=none;endArrow=classic;startSize=5;endSize=5;strokeColor=#000000;spacingTop=0;spacingBottom=0;spacingLeft=0;spacingRight=0;verticalAlign=middle;html=1;labelBackgroundColor=#ffffff;rounded=0;exitX=0.5;exitY=1;exitDx=0;exitDy=0;exitPerimeter=0;entryX=0.5;entryY=0;entryDx=0;entryDy=0;entryPerimeter=0;" edge="1" parent="1" source="0qjY-80UsohrKf_hPCvL-37" target="0qjY-80UsohrKf_hPCvL-25">
          <mxGeometry relative="1" as="geometry">
            <mxPoint y="126" as="offset" />
            <Array as="points" />
          </mxGeometry>
        </mxCell>
        <mxCell id="0qjY-80UsohrKf_hPCvL-100" style="vsdxID=69;edgeStyle=none;startArrow=none;endArrow=classic;startSize=5;endSize=5;strokeColor=#000000;spacingTop=0;spacingBottom=0;spacingLeft=0;spacingRight=0;verticalAlign=middle;html=1;labelBackgroundColor=#ffffff;rounded=0;exitX=1;exitY=0.5;exitDx=0;exitDy=0;exitPerimeter=0;entryX=0.5;entryY=1;entryDx=0;entryDy=0;entryPerimeter=0;" edge="1" parent="1" source="0qjY-80UsohrKf_hPCvL-37" target="0qjY-80UsohrKf_hPCvL-16">
          <mxGeometry relative="1" as="geometry">
            <mxPoint x="-105" y="296" as="offset" />
            <Array as="points">
              <mxPoint x="2794" y="2664" />
              <mxPoint x="2794" y="2299.14" />
              <mxPoint x="2894" y="2299.14" />
            </Array>
          </mxGeometry>
        </mxCell>
        <mxCell id="0qjY-80UsohrKf_hPCvL-101" style="vsdxID=70;edgeStyle=none;startArrow=none;endArrow=classic;startSize=5;endSize=5;strokeColor=#000000;spacingTop=0;spacingBottom=0;spacingLeft=0;spacingRight=0;verticalAlign=middle;html=1;labelBackgroundColor=#ffffff;rounded=0;exitX=0.5;exitY=1;exitDx=0;exitDy=0;exitPerimeter=0;entryX=0.5;entryY=0;entryDx=0;entryDy=0;entryPerimeter=0;" edge="1" parent="1" source="0qjY-80UsohrKf_hPCvL-38" target="0qjY-80UsohrKf_hPCvL-5">
          <mxGeometry relative="1" as="geometry">
            <mxPoint y="126" as="offset" />
            <Array as="points" />
          </mxGeometry>
        </mxCell>
        <mxCell id="0qjY-80UsohrKf_hPCvL-102" style="vsdxID=72;edgeStyle=none;startArrow=none;endArrow=classic;startSize=5;endSize=5;strokeColor=#000000;spacingTop=0;spacingBottom=0;spacingLeft=0;spacingRight=0;verticalAlign=middle;html=1;labelBackgroundColor=#ffffff;rounded=0;exitX=0.5;exitY=1;exitDx=0;exitDy=0;exitPerimeter=0;entryX=0.5;entryY=0;entryDx=0;entryDy=0;entryPerimeter=0;" edge="1" parent="1" source="0qjY-80UsohrKf_hPCvL-39" target="0qjY-80UsohrKf_hPCvL-43">
          <mxGeometry relative="1" as="geometry">
            <mxPoint y="116" as="offset" />
            <Array as="points">
              <mxPoint x="896" y="1454" />
              <mxPoint x="896" y="1444" />
            </Array>
          </mxGeometry>
        </mxCell>
        <mxCell id="0qjY-80UsohrKf_hPCvL-103" style="vsdxID=75;edgeStyle=none;startArrow=none;endArrow=classic;startSize=5;endSize=5;strokeColor=#000000;spacingTop=0;spacingBottom=0;spacingLeft=0;spacingRight=0;verticalAlign=middle;html=1;labelBackgroundColor=#ffffff;rounded=0;exitX=0;exitY=0.5;exitDx=0;exitDy=0;exitPerimeter=0;entryX=0;entryY=0.5;entryDx=0;entryDy=0;entryPerimeter=0;" edge="1" parent="1" source="0qjY-80UsohrKf_hPCvL-40" target="0qjY-80UsohrKf_hPCvL-46">
          <mxGeometry relative="1" as="geometry">
            <mxPoint x="79" y="303" as="offset" />
            <Array as="points">
              <mxPoint x="756.07" y="1544" />
              <mxPoint x="756.07" y="1949.14" />
            </Array>
          </mxGeometry>
        </mxCell>
        <mxCell id="0qjY-80UsohrKf_hPCvL-104" style="vsdxID=78;edgeStyle=none;startArrow=none;endArrow=classic;startSize=5;endSize=5;strokeColor=#000000;spacingTop=0;spacingBottom=0;spacingLeft=0;spacingRight=0;verticalAlign=middle;html=1;labelBackgroundColor=#ffffff;rounded=0;exitX=0;exitY=0.5;exitDx=0;exitDy=0;exitPerimeter=0;entryX=0;entryY=0.5;entryDx=0;entryDy=0;entryPerimeter=0;" edge="1" parent="1" source="0qjY-80UsohrKf_hPCvL-41" target="0qjY-80UsohrKf_hPCvL-46">
          <mxGeometry relative="1" as="geometry">
            <mxPoint x="79" y="226" as="offset" />
            <Array as="points">
              <mxPoint x="756.07" y="1699" />
              <mxPoint x="756.07" y="1949" />
            </Array>
          </mxGeometry>
        </mxCell>
        <mxCell id="0qjY-80UsohrKf_hPCvL-105" style="vsdxID=80;edgeStyle=none;startArrow=none;endArrow=classic;startSize=5;endSize=5;strokeColor=#000000;spacingTop=0;spacingBottom=0;spacingLeft=0;spacingRight=0;verticalAlign=middle;html=1;labelBackgroundColor=#ffffff;rounded=0;exitX=0;exitY=0.5;exitDx=0;exitDy=0;exitPerimeter=0;entryX=0;entryY=0.5;entryDx=0;entryDy=0;entryPerimeter=0;" edge="1" parent="1" source="0qjY-80UsohrKf_hPCvL-42" target="0qjY-80UsohrKf_hPCvL-46">
          <mxGeometry relative="1" as="geometry">
            <mxPoint x="79" y="156" as="offset" />
            <Array as="points">
              <mxPoint x="756.07" y="1839" />
              <mxPoint x="756.07" y="1949" />
            </Array>
          </mxGeometry>
        </mxCell>
        <mxCell id="0qjY-80UsohrKf_hPCvL-106" value="&lt;font style=&quot;font-size:11px;font-family:Helvetica;color:#000000;direction:ltr;letter-spacing:0px;line-height:120%;opacity:1&quot;&gt;yes&lt;/font&gt;" style="vsdxID=82;edgeStyle=none;startArrow=none;endArrow=classic;startSize=5;endSize=5;strokeColor=#000000;spacingTop=0;spacingBottom=0;spacingLeft=0;spacingRight=0;verticalAlign=middle;html=1;labelBackgroundColor=#ffffff;rounded=0;align=center;exitX=0.5;exitY=0.975;exitDx=0;exitDy=0;exitPerimeter=0;entryX=0.5;entryY=0;entryDx=0;entryDy=0;entryPerimeter=0;" edge="1" parent="1" source="0qjY-80UsohrKf_hPCvL-43" target="0qjY-80UsohrKf_hPCvL-40">
          <mxGeometry relative="1" as="geometry">
            <mxPoint y="-2" as="offset" />
            <Array as="points">
              <mxPoint x="896" y="1523.02" />
              <mxPoint x="896" y="1503.02" />
            </Array>
          </mxGeometry>
        </mxCell>
        <mxCell id="0qjY-80UsohrKf_hPCvL-107" value="&lt;font style=&quot;font-size:11px;font-family:Helvetica;color:#000000;direction:ltr;letter-spacing:0px;line-height:120%;opacity:1&quot;&gt;no&lt;/font&gt;" style="vsdxID=83;edgeStyle=none;startArrow=none;endArrow=classic;startSize=5;endSize=5;strokeColor=#000000;spacingTop=0;spacingBottom=0;spacingLeft=0;spacingRight=0;verticalAlign=middle;html=1;labelBackgroundColor=#ffffff;rounded=0;align=center;exitX=1;exitY=0.5;exitDx=0;exitDy=0;exitPerimeter=0;entryX=0.5;entryY=0;entryDx=0;entryDy=0;entryPerimeter=0;" edge="1" parent="1" source="0qjY-80UsohrKf_hPCvL-43" target="0qjY-80UsohrKf_hPCvL-44">
          <mxGeometry relative="1" as="geometry">
            <mxPoint x="60" as="offset" />
            <Array as="points">
              <mxPoint x="1006.07" y="1484" />
              <mxPoint x="1006.07" y="1594" />
              <mxPoint x="896.07" y="1594" />
            </Array>
          </mxGeometry>
        </mxCell>
        <mxCell id="0qjY-80UsohrKf_hPCvL-108" value="&lt;font style=&quot;font-size:11px;font-family:Helvetica;color:#000000;direction:ltr;letter-spacing:0px;line-height:120%;opacity:1&quot;&gt;yes&lt;/font&gt;" style="vsdxID=85;edgeStyle=none;startArrow=none;endArrow=classic;startSize=5;endSize=5;strokeColor=#000000;spacingTop=0;spacingBottom=0;spacingLeft=0;spacingRight=0;verticalAlign=middle;html=1;labelBackgroundColor=#ffffff;rounded=0;align=center;exitX=0.5;exitY=0.975;exitDx=0;exitDy=0;exitPerimeter=0;entryX=0.5;entryY=0;entryDx=0;entryDy=0;entryPerimeter=0;" edge="1" parent="1" source="0qjY-80UsohrKf_hPCvL-44" target="0qjY-80UsohrKf_hPCvL-41">
          <mxGeometry relative="1" as="geometry">
            <mxPoint y="-1" as="offset" />
            <Array as="points">
              <mxPoint x="896" y="1673.02" />
              <mxPoint x="896" y="1663.02" />
            </Array>
          </mxGeometry>
        </mxCell>
        <mxCell id="0qjY-80UsohrKf_hPCvL-109" value="&lt;font style=&quot;font-size:11px;font-family:Helvetica;color:#000000;direction:ltr;letter-spacing:0px;line-height:120%;opacity:1&quot;&gt;no&lt;/font&gt;" style="vsdxID=86;edgeStyle=none;startArrow=none;endArrow=classic;startSize=5;endSize=5;strokeColor=#000000;spacingTop=0;spacingBottom=0;spacingLeft=0;spacingRight=0;verticalAlign=middle;html=1;labelBackgroundColor=#ffffff;rounded=0;align=center;exitX=1;exitY=0.5;exitDx=0;exitDy=0;exitPerimeter=0;entryX=0.5;entryY=0;entryDx=0;entryDy=0;entryPerimeter=0;" edge="1" parent="1" source="0qjY-80UsohrKf_hPCvL-44" target="0qjY-80UsohrKf_hPCvL-45">
          <mxGeometry relative="1" as="geometry">
            <mxPoint x="59" as="offset" />
            <Array as="points">
              <mxPoint x="1006.07" y="1634" />
              <mxPoint x="1006.07" y="1734" />
              <mxPoint x="896.07" y="1734" />
            </Array>
          </mxGeometry>
        </mxCell>
        <mxCell id="0qjY-80UsohrKf_hPCvL-110" value="&lt;font style=&quot;font-size:11px;font-family:Helvetica;color:#000000;direction:ltr;letter-spacing:0px;line-height:120%;opacity:1&quot;&gt;yes&lt;/font&gt;" style="vsdxID=88;edgeStyle=none;startArrow=none;endArrow=classic;startSize=5;endSize=5;strokeColor=#000000;spacingTop=0;spacingBottom=0;spacingLeft=0;spacingRight=0;verticalAlign=middle;html=1;labelBackgroundColor=#ffffff;rounded=0;align=center;exitX=0.5;exitY=0.975;exitDx=0;exitDy=0;exitPerimeter=0;entryX=0.5;entryY=0;entryDx=0;entryDy=0;entryPerimeter=0;" edge="1" parent="1" source="0qjY-80UsohrKf_hPCvL-45" target="0qjY-80UsohrKf_hPCvL-42">
          <mxGeometry relative="1" as="geometry">
            <mxPoint y="-1" as="offset" />
            <Array as="points">
              <mxPoint x="896" y="1813.02" />
              <mxPoint x="896" y="1803.02" />
            </Array>
          </mxGeometry>
        </mxCell>
        <mxCell id="0qjY-80UsohrKf_hPCvL-111" value="&lt;font style=&quot;font-size:11px;font-family:Helvetica;color:#000000;direction:ltr;letter-spacing:0px;line-height:120%;opacity:1&quot;&gt;no&lt;/font&gt;" style="vsdxID=90;edgeStyle=none;startArrow=none;endArrow=classic;startSize=5;endSize=5;strokeColor=#000000;spacingTop=0;spacingBottom=0;spacingLeft=0;spacingRight=0;verticalAlign=middle;html=1;labelBackgroundColor=#ffffff;rounded=0;align=center;exitX=1;exitY=0.5;exitDx=0;exitDy=0;exitPerimeter=0;entryX=0.5;entryY=0;entryDx=0;entryDy=0;entryPerimeter=0;" edge="1" parent="1" source="0qjY-80UsohrKf_hPCvL-45" target="0qjY-80UsohrKf_hPCvL-47">
          <mxGeometry relative="1" as="geometry">
            <mxPoint x="59" as="offset" />
            <Array as="points">
              <mxPoint x="1026.07" y="1774" />
              <mxPoint x="1026.07" y="1984" />
              <mxPoint x="896.07" y="1984" />
            </Array>
          </mxGeometry>
        </mxCell>
        <mxCell id="0qjY-80UsohrKf_hPCvL-112" value="&lt;font style=&quot;font-size:11px;font-family:Helvetica;color:#000000;direction:ltr;letter-spacing:0px;line-height:120%;opacity:1&quot;&gt;no&lt;/font&gt;" style="vsdxID=92;edgeStyle=none;startArrow=none;endArrow=classic;startSize=5;endSize=5;strokeColor=#000000;spacingTop=0;spacingBottom=0;spacingLeft=0;spacingRight=0;verticalAlign=middle;html=1;labelBackgroundColor=#ffffff;rounded=0;align=center;exitX=1;exitY=0.5;exitDx=0;exitDy=0;exitPerimeter=0;entryX=0;entryY=0.5;entryDx=0;entryDy=0;entryPerimeter=0;" edge="1" parent="1" source="0qjY-80UsohrKf_hPCvL-47" target="0qjY-80UsohrKf_hPCvL-48">
          <mxGeometry relative="1" as="geometry">
            <mxPoint y="-2" as="offset" />
            <Array as="points">
              <mxPoint x="971.24" y="2039" />
              <mxPoint x="966.39" y="2039" />
            </Array>
          </mxGeometry>
        </mxCell>
        <mxCell id="0qjY-80UsohrKf_hPCvL-113" style="vsdxID=94;edgeStyle=none;startArrow=none;endArrow=classic;startSize=5;endSize=5;strokeColor=#000000;spacingTop=0;spacingBottom=0;spacingLeft=0;spacingRight=0;verticalAlign=middle;html=1;labelBackgroundColor=#ffffff;rounded=0;exitX=1;exitY=0.5;exitDx=0;exitDy=0;exitPerimeter=0;entryX=0;entryY=0.5;entryDx=0;entryDy=0;entryPerimeter=0;" edge="1" parent="1" source="0qjY-80UsohrKf_hPCvL-48" target="0qjY-80UsohrKf_hPCvL-49">
          <mxGeometry relative="1" as="geometry">
            <mxPoint x="-20" y="103" as="offset" />
            <Array as="points" />
          </mxGeometry>
        </mxCell>
        <mxCell id="0qjY-80UsohrKf_hPCvL-114" style="vsdxID=97;edgeStyle=none;dashed=1;dashPattern=4.00 2.00;startArrow=none;endArrow=classic;startSize=5;endSize=5;strokeColor=#000000;spacingTop=0;spacingBottom=0;spacingLeft=0;spacingRight=0;verticalAlign=middle;html=1;labelBackgroundColor=#ffffff;rounded=0;exitX=1;exitY=0.5;exitDx=0;exitDy=0;exitPerimeter=0;entryX=0;entryY=0.2728155339805825;entryDx=0;entryDy=0;entryPerimeter=0;" edge="1" parent="1" source="0qjY-80UsohrKf_hPCvL-13" target="0qjY-80UsohrKf_hPCvL-51">
          <mxGeometry relative="1" as="geometry">
            <mxPoint x="-223" y="103" as="offset" />
            <Array as="points">
              <mxPoint x="2504" y="2129.14" />
            </Array>
          </mxGeometry>
        </mxCell>
        <mxCell id="0qjY-80UsohrKf_hPCvL-115" style="vsdxID=99;edgeStyle=none;dashed=1;dashPattern=4.00 2.00;startArrow=none;endArrow=classic;startSize=5;endSize=5;strokeColor=#000000;spacingTop=0;spacingBottom=0;spacingLeft=0;spacingRight=0;verticalAlign=middle;html=1;labelBackgroundColor=#ffffff;rounded=1;exitX=1;exitY=0.5;exitDx=0;exitDy=0;exitPerimeter=0;entryX=-0.006593406593406593;entryY=0.19454545454545455;entryDx=0;entryDy=0;entryPerimeter=0;" edge="1" parent="1" source="0qjY-80UsohrKf_hPCvL-2" target="0qjY-80UsohrKf_hPCvL-52">
          <mxGeometry relative="1" as="geometry">
            <mxPoint x="-81" y="103" as="offset" />
            <Array as="points" />
          </mxGeometry>
        </mxCell>
        <mxCell id="0qjY-80UsohrKf_hPCvL-116" style="vsdxID=105;edgeStyle=none;startArrow=none;endArrow=classic;startSize=5;endSize=5;strokeColor=#000000;spacingTop=0;spacingBottom=0;spacingLeft=0;spacingRight=0;verticalAlign=middle;html=1;labelBackgroundColor=#ffffff;rounded=0;exitX=0.5;exitY=1;exitDx=0;exitDy=0;exitPerimeter=0;entryX=0.5;entryY=0;entryDx=0;entryDy=0;entryPerimeter=0;" edge="1" parent="1" source="0qjY-80UsohrKf_hPCvL-47" target="0qjY-80UsohrKf_hPCvL-50">
          <mxGeometry relative="1" as="geometry">
            <mxPoint y="121" as="offset" />
            <Array as="points" />
          </mxGeometry>
        </mxCell>
        <mxCell id="0qjY-80UsohrKf_hPCvL-117" style="vsdxID=106;edgeStyle=none;startArrow=none;endArrow=classic;startSize=5;endSize=5;strokeColor=#000000;spacingTop=0;spacingBottom=0;spacingLeft=0;spacingRight=0;verticalAlign=middle;html=1;labelBackgroundColor=#ffffff;rounded=0;exitX=0.5;exitY=1;exitDx=0;exitDy=0;exitPerimeter=0;entryX=0.5;entryY=0;entryDx=0;entryDy=0;entryPerimeter=0;" edge="1" parent="1" source="0qjY-80UsohrKf_hPCvL-50" target="0qjY-80UsohrKf_hPCvL-53">
          <mxGeometry relative="1" as="geometry">
            <mxPoint y="116" as="offset" />
            <Array as="points">
              <mxPoint x="896" y="2184" />
              <mxPoint x="896" y="2174" />
            </Array>
          </mxGeometry>
        </mxCell>
        <mxCell id="0qjY-80UsohrKf_hPCvL-118" style="vsdxID=107;edgeStyle=none;startArrow=none;endArrow=classic;startSize=5;endSize=5;strokeColor=#000000;spacingTop=0;spacingBottom=0;spacingLeft=0;spacingRight=0;verticalAlign=middle;html=1;labelBackgroundColor=#ffffff;rounded=0;exitX=0.5;exitY=0.98;exitDx=0;exitDy=0;exitPerimeter=0;entryX=0.49333333333333335;entryY=0;entryDx=0;entryDy=0;entryPerimeter=0;" edge="1" parent="1" source="0qjY-80UsohrKf_hPCvL-53" target="0qjY-80UsohrKf_hPCvL-54">
          <mxGeometry relative="1" as="geometry">
            <mxPoint y="116" as="offset" />
            <Array as="points">
              <mxPoint x="896" y="2263.02" />
              <mxPoint x="896" y="2253.02" />
            </Array>
          </mxGeometry>
        </mxCell>
        <mxCell id="0qjY-80UsohrKf_hPCvL-119" style="vsdxID=108;edgeStyle=none;dashed=1;dashPattern=4.00 2.00;startArrow=none;endArrow=classic;startSize=5;endSize=5;strokeColor=#000000;spacingTop=0;spacingBottom=0;spacingLeft=0;spacingRight=0;verticalAlign=middle;html=1;labelBackgroundColor=#ffffff;rounded=0;exitX=0.49333333333333335;exitY=1;exitDx=0;exitDy=0;exitPerimeter=0;entryX=0.49696969696969695;entryY=0;entryDx=0;entryDy=0;entryPerimeter=0;" edge="1" parent="1" source="0qjY-80UsohrKf_hPCvL-54" target="0qjY-80UsohrKf_hPCvL-55">
          <mxGeometry relative="1" as="geometry">
            <mxPoint y="116" as="offset" />
            <Array as="points">
              <mxPoint x="896" y="2314" />
              <mxPoint x="896" y="2304" />
            </Array>
          </mxGeometry>
        </mxCell>
        <mxCell id="0qjY-80UsohrKf_hPCvL-120" style="vsdxID=109;edgeStyle=none;startArrow=none;endArrow=classic;startSize=5;endSize=5;strokeColor=#000000;spacingTop=0;spacingBottom=0;spacingLeft=0;spacingRight=0;verticalAlign=middle;html=1;labelBackgroundColor=#ffffff;rounded=0;exitX=0.49696969696969695;exitY=1;exitDx=0;exitDy=0;exitPerimeter=0;entryX=0.4988235294117647;entryY=0;entryDx=0;entryDy=0;entryPerimeter=0;" edge="1" parent="1" source="0qjY-80UsohrKf_hPCvL-55" target="0qjY-80UsohrKf_hPCvL-56">
          <mxGeometry relative="1" as="geometry">
            <mxPoint y="121" as="offset" />
            <Array as="points" />
          </mxGeometry>
        </mxCell>
        <mxCell id="0qjY-80UsohrKf_hPCvL-121" style="vsdxID=110;edgeStyle=none;startArrow=none;endArrow=classic;startSize=5;endSize=5;strokeColor=#000000;spacingTop=0;spacingBottom=0;spacingLeft=0;spacingRight=0;verticalAlign=middle;html=1;labelBackgroundColor=#ffffff;rounded=0;exitX=0.4988235294117647;exitY=1;exitDx=0;exitDy=0;exitPerimeter=0;entryX=0.5;entryY=0;entryDx=0;entryDy=0;entryPerimeter=0;" edge="1" parent="1" source="0qjY-80UsohrKf_hPCvL-56" target="0qjY-80UsohrKf_hPCvL-58">
          <mxGeometry relative="1" as="geometry">
            <mxPoint y="131" as="offset" />
            <Array as="points" />
          </mxGeometry>
        </mxCell>
        <mxCell id="0qjY-80UsohrKf_hPCvL-122" style="vsdxID=112;edgeStyle=none;startArrow=none;endArrow=classic;startSize=5;endSize=5;strokeColor=#000000;spacingTop=0;spacingBottom=0;spacingLeft=0;spacingRight=0;verticalAlign=middle;html=1;labelBackgroundColor=#ffffff;rounded=0;exitX=0;exitY=0.75;exitDx=0;exitDy=0;exitPerimeter=0;entryX=0.5;entryY=0;entryDx=0;entryDy=0;entryPerimeter=0;" edge="1" parent="1" source="0qjY-80UsohrKf_hPCvL-57" target="0qjY-80UsohrKf_hPCvL-58">
          <mxGeometry relative="1" as="geometry">
            <mxPoint x="123" y="121" as="offset" />
            <Array as="points">
              <mxPoint x="896.57" y="2483.5" />
            </Array>
          </mxGeometry>
        </mxCell>
        <mxCell id="0qjY-80UsohrKf_hPCvL-123" style="vsdxID=113;edgeStyle=none;startArrow=none;endArrow=classic;startSize=5;endSize=5;strokeColor=#000000;spacingTop=0;spacingBottom=0;spacingLeft=0;spacingRight=0;verticalAlign=middle;html=1;labelBackgroundColor=#ffffff;rounded=0;exitX=1;exitY=0.5;exitDx=0;exitDy=0;exitPerimeter=0;entryX=0.5;entryY=0;entryDx=0;entryDy=0;entryPerimeter=0;" edge="1" parent="1" source="0qjY-80UsohrKf_hPCvL-56" target="0qjY-80UsohrKf_hPCvL-57">
          <mxGeometry relative="1" as="geometry">
            <mxPoint x="-64" y="153" as="offset" />
            <Array as="points">
              <mxPoint x="1184" y="2419.14" />
            </Array>
          </mxGeometry>
        </mxCell>
        <mxCell id="0qjY-80UsohrKf_hPCvL-124" style="vsdxID=115;edgeStyle=none;startArrow=none;endArrow=classic;startSize=5;endSize=5;strokeColor=#000000;spacingTop=0;spacingBottom=0;spacingLeft=0;spacingRight=0;verticalAlign=middle;html=1;labelBackgroundColor=#ffffff;rounded=0;exitX=0.5;exitY=0.9875;exitDx=0;exitDy=0;exitPerimeter=0;entryX=0.5;entryY=0;entryDx=0;entryDy=0;entryPerimeter=0;" edge="1" parent="1" source="0qjY-80UsohrKf_hPCvL-58" target="0qjY-80UsohrKf_hPCvL-59">
          <mxGeometry relative="1" as="geometry">
            <mxPoint y="116" as="offset" />
            <Array as="points">
              <mxPoint x="896" y="2603.03" />
              <mxPoint x="896" y="2593.03" />
            </Array>
          </mxGeometry>
        </mxCell>
        <mxCell id="0qjY-80UsohrKf_hPCvL-125" style="vsdxID=120;edgeStyle=none;startArrow=none;endArrow=classic;startSize=5;endSize=5;strokeColor=#000000;spacingTop=0;spacingBottom=0;spacingLeft=0;spacingRight=0;verticalAlign=middle;html=1;labelBackgroundColor=#ffffff;rounded=0;exitX=0.5;exitY=1;exitDx=0;exitDy=0;exitPerimeter=0;entryX=0.5;entryY=0;entryDx=0;entryDy=0;entryPerimeter=0;" edge="1" parent="1" source="0qjY-80UsohrKf_hPCvL-59" target="0qjY-80UsohrKf_hPCvL-60">
          <mxGeometry relative="1" as="geometry">
            <mxPoint y="116" as="offset" />
            <Array as="points">
              <mxPoint x="896" y="2694" />
              <mxPoint x="896" y="2684" />
            </Array>
          </mxGeometry>
        </mxCell>
        <mxCell id="0qjY-80UsohrKf_hPCvL-126" style="vsdxID=121;edgeStyle=none;startArrow=none;endArrow=classic;startSize=5;endSize=5;strokeColor=#000000;spacingTop=0;spacingBottom=0;spacingLeft=0;spacingRight=0;verticalAlign=middle;html=1;labelBackgroundColor=#ffffff;rounded=0;exitX=0.5;exitY=1;exitDx=0;exitDy=0;exitPerimeter=0;entryX=0.4953271028037383;entryY=0;entryDx=0;entryDy=0;entryPerimeter=0;" edge="1" parent="1" source="0qjY-80UsohrKf_hPCvL-60" target="0qjY-80UsohrKf_hPCvL-61">
          <mxGeometry relative="1" as="geometry">
            <mxPoint y="116" as="offset" />
            <Array as="points">
              <mxPoint x="896" y="2754" />
              <mxPoint x="896" y="2744" />
            </Array>
          </mxGeometry>
        </mxCell>
        <mxCell id="0qjY-80UsohrKf_hPCvL-127" style="vsdxID=122;edgeStyle=none;startArrow=none;endArrow=classic;startSize=5;endSize=5;strokeColor=#000000;spacingTop=0;spacingBottom=0;spacingLeft=0;spacingRight=0;verticalAlign=middle;html=1;labelBackgroundColor=#ffffff;rounded=0;exitX=0.4953271028037383;exitY=0.98;exitDx=0;exitDy=0;exitPerimeter=0;entryX=0.5;entryY=0;entryDx=0;entryDy=0;entryPerimeter=0;" edge="1" parent="1" source="0qjY-80UsohrKf_hPCvL-61" target="0qjY-80UsohrKf_hPCvL-62">
          <mxGeometry relative="1" as="geometry">
            <mxPoint y="116" as="offset" />
            <Array as="points">
              <mxPoint x="896" y="2833.03" />
              <mxPoint x="896" y="2823.03" />
            </Array>
          </mxGeometry>
        </mxCell>
        <mxCell id="0qjY-80UsohrKf_hPCvL-128" style="vsdxID=125;edgeStyle=none;startArrow=none;endArrow=classic;startSize=5;endSize=5;strokeColor=#000000;spacingTop=0;spacingBottom=0;spacingLeft=0;spacingRight=0;verticalAlign=middle;html=1;labelBackgroundColor=#ffffff;rounded=0;exitX=0.5;exitY=1;exitDx=0;exitDy=0;exitPerimeter=0;entryX=0.4972375690607735;entryY=0;entryDx=0;entryDy=0;entryPerimeter=0;" edge="1" parent="1" source="0qjY-80UsohrKf_hPCvL-63" target="0qjY-80UsohrKf_hPCvL-64">
          <mxGeometry relative="1" as="geometry">
            <mxPoint y="126" as="offset" />
            <Array as="points" />
          </mxGeometry>
        </mxCell>
        <mxCell id="0qjY-80UsohrKf_hPCvL-129" style="vsdxID=126;edgeStyle=none;startArrow=none;endArrow=classic;startSize=5;endSize=5;strokeColor=#000000;spacingTop=0;spacingBottom=0;spacingLeft=0;spacingRight=0;verticalAlign=middle;html=1;labelBackgroundColor=#ffffff;rounded=0;exitX=0.4972375690607735;exitY=1;exitDx=0;exitDy=0;exitPerimeter=0;entryX=0.5;entryY=0;entryDx=0;entryDy=0;entryPerimeter=0;" edge="1" parent="1" source="0qjY-80UsohrKf_hPCvL-64" target="0qjY-80UsohrKf_hPCvL-65">
          <mxGeometry relative="1" as="geometry">
            <mxPoint y="121" as="offset" />
            <Array as="points" />
          </mxGeometry>
        </mxCell>
        <mxCell id="0qjY-80UsohrKf_hPCvL-130" style="vsdxID=128;edgeStyle=none;startArrow=none;endArrow=classic;startSize=5;endSize=5;strokeColor=#000000;spacingTop=0;spacingBottom=0;spacingLeft=0;spacingRight=0;verticalAlign=middle;html=1;labelBackgroundColor=#ffffff;rounded=0;exitX=0.5;exitY=1;exitDx=0;exitDy=0;exitPerimeter=0;entryX=0.5;entryY=0;entryDx=0;entryDy=0;entryPerimeter=0;" edge="1" parent="1" source="0qjY-80UsohrKf_hPCvL-62" target="0qjY-80UsohrKf_hPCvL-66">
          <mxGeometry relative="1" as="geometry">
            <mxPoint y="121" as="offset" />
            <Array as="points" />
          </mxGeometry>
        </mxCell>
        <mxCell id="0qjY-80UsohrKf_hPCvL-131" style="vsdxID=129;edgeStyle=none;startArrow=none;endArrow=classic;startSize=5;endSize=5;strokeColor=#000000;spacingTop=0;spacingBottom=0;spacingLeft=0;spacingRight=0;verticalAlign=middle;html=1;labelBackgroundColor=#ffffff;rounded=0;exitX=0.5;exitY=1;exitDx=0;exitDy=0;exitPerimeter=0;entryX=0.5;entryY=0;entryDx=0;entryDy=0;entryPerimeter=0;" edge="1" parent="1" source="0qjY-80UsohrKf_hPCvL-66" target="0qjY-80UsohrKf_hPCvL-63">
          <mxGeometry relative="1" as="geometry">
            <mxPoint y="126" as="offset" />
            <Array as="points" />
          </mxGeometry>
        </mxCell>
        <mxCell id="0qjY-80UsohrKf_hPCvL-132" style="vsdxID=130;edgeStyle=none;startArrow=none;endArrow=classic;startSize=5;endSize=5;strokeColor=#000000;spacingTop=0;spacingBottom=0;spacingLeft=0;spacingRight=0;verticalAlign=middle;html=1;labelBackgroundColor=#ffffff;rounded=0;exitX=1;exitY=0.5;exitDx=0;exitDy=0;exitPerimeter=0;entryX=1;entryY=0.5;entryDx=0;entryDy=0;entryPerimeter=0;" edge="1" parent="1" source="0qjY-80UsohrKf_hPCvL-64" target="0qjY-80UsohrKf_hPCvL-63">
          <mxGeometry relative="1" as="geometry">
            <mxPoint x="-60" y="169" as="offset" />
            <Array as="points">
              <mxPoint x="1046.57" y="3174" />
              <mxPoint x="1046.57" y="3069.14" />
            </Array>
          </mxGeometry>
        </mxCell>
        <mxCell id="0qjY-80UsohrKf_hPCvL-133" vertex="1" parent="1">
          <mxGeometry x="1345" y="1579" as="geometry" />
        </mxCell>
        <mxCell id="0qjY-80UsohrKf_hPCvL-134" style="vsdxID=132;edgeStyle=none;dashed=1;dashPattern=4.00 2.00;startArrow=none;endArrow=classic;startSize=5;endSize=5;strokeColor=#000000;spacingTop=0;spacingBottom=0;spacingLeft=0;spacingRight=0;verticalAlign=middle;html=1;labelBackgroundColor=#ffffff;rounded=1;exitX=0;exitY=0.5;exitDx=0;exitDy=0;exitPerimeter=0;" edge="1" parent="1" source="0qjY-80UsohrKf_hPCvL-4" target="0qjY-80UsohrKf_hPCvL-133">
          <mxGeometry relative="1" as="geometry">
            <mxPoint x="95" y="103" as="offset" />
            <Array as="points" />
          </mxGeometry>
        </mxCell>
        <mxCell id="0qjY-80UsohrKf_hPCvL-135" vertex="1" parent="1">
          <mxGeometry x="674" y="1389" as="geometry" />
        </mxCell>
        <mxCell id="0qjY-80UsohrKf_hPCvL-136" style="vsdxID=133;edgeStyle=none;startArrow=none;endArrow=classic;startSize=5;endSize=5;strokeColor=#000000;spacingTop=0;spacingBottom=0;spacingLeft=0;spacingRight=0;verticalAlign=middle;html=1;labelBackgroundColor=#ffffff;rounded=1;entryX=0.20384615384615384;entryY=0.052657004830917876;entryDx=0;entryDy=0;entryPerimeter=0;" edge="1" parent="1" source="0qjY-80UsohrKf_hPCvL-135" target="0qjY-80UsohrKf_hPCvL-67">
          <mxGeometry relative="1" as="geometry">
            <mxPoint x="-26" y="121" as="offset" />
            <Array as="points" />
          </mxGeometry>
        </mxCell>
      </root>
    </mxGraphModel>
  </diagram>
</mxfile>
